<?xml version="1.0" encoding="UTF-8" standalone="no"?>
<svg
   xmlns:dc="http://purl.org/dc/elements/1.1/"
   xmlns:cc="http://creativecommons.org/ns#"
   xmlns:rdf="http://www.w3.org/1999/02/22-rdf-syntax-ns#"
   xmlns:svg="http://www.w3.org/2000/svg"
   xmlns="http://www.w3.org/2000/svg"
   xmlns:sodipodi="http://sodipodi.sourceforge.net/DTD/sodipodi-0.dtd"
   xmlns:inkscape="http://www.inkscape.org/namespaces/inkscape"
   version="1.1"
   id="Layer_1"
   x="0px"
   y="0px"
   width="1052.3622"
   height="744.09448"
   viewBox="0 0 1052.3622 744.09449"
   enable-background="new 0 0 100 100"
   xml:space="preserve"
   inkscape:version="0.48.2 r9819"
   sodipodi:docname="distributed_vcs_flow.svg"
   inkscape:export-filename="/Users/massimomenichinelli/Documents/Github/Design-with-the-user_Slides/images/distributed_vcs_flow_05.png"
   inkscape:export-xdpi="90"
   inkscape:export-ydpi="90"><sodipodi:namedview
   pagecolor="#ffffff"
   bordercolor="#666666"
   borderopacity="1"
   objecttolerance="10"
   gridtolerance="10"
   guidetolerance="10"
   inkscape:pageopacity="0"
   inkscape:pageshadow="2"
   inkscape:window-width="1280"
   inkscape:window-height="702"
   id="namedview5"
   showgrid="false"
   inkscape:zoom="0.50937319"
   inkscape:cx="637.211"
   inkscape:cy="310.7248"
   inkscape:window-x="0"
   inkscape:window-y="0"
   inkscape:window-maximized="1"
   inkscape:current-layer="layer4"
   units="mm" /><metadata
   id="metadata9"><rdf:RDF><cc:Work
       rdf:about=""><dc:format>image/svg+xml</dc:format><dc:type
         rdf:resource="http://purl.org/dc/dcmitype/StillImage" /><dc:title></dc:title></cc:Work></rdf:RDF></metadata><defs
   id="defs7"><marker
   style="overflow:visible"
   id="Arrow1Sstart"
   refX="0"
   refY="0"
   orient="auto"
   inkscape:stockid="Arrow1Sstart"><path
     inkscape:connector-curvature="0"
     transform="matrix(0.2,0,0,0.2,1.2,0)"
     style="fill-rule:evenodd;stroke:#000000;stroke-width:1pt;marker-start:none"
     d="M 0,0 5,-5 -12.5,0 5,5 0,0 z"
     id="path4669" /></marker><marker
   style="overflow:visible"
   id="Arrow1Mstart"
   refX="0"
   refY="0"
   orient="auto"
   inkscape:stockid="Arrow1Mstart"><path
     inkscape:connector-curvature="0"
     transform="matrix(0.4,0,0,0.4,4,0)"
     style="fill-rule:evenodd;stroke:#000000;stroke-width:1pt;marker-start:none"
     d="M 0,0 5,-5 -12.5,0 5,5 0,0 z"
     id="path4663" /></marker><marker
   style="overflow:visible"
   id="Arrow1Send"
   refX="0"
   refY="0"
   orient="auto"
   inkscape:stockid="Arrow1Send"><path
     inkscape:connector-curvature="0"
     transform="matrix(-0.2,0,0,-0.2,-1.2,0)"
     style="fill-rule:evenodd;stroke:#000000;stroke-width:1pt;marker-start:none"
     d="M 0,0 5,-5 -12.5,0 5,5 0,0 z"
     id="path4672" /></marker><marker
   inkscape:stockid="TriangleOutM"
   orient="auto"
   refY="0"
   refX="0"
   id="marker4238"
   style="overflow:visible"><path
     inkscape:connector-curvature="0"
     id="path4240"
     d="m 5.77,0 -8.65,5 0,-10 8.65,5 z"
     style="fill-rule:evenodd;stroke:#000000;stroke-width:1pt;marker-start:none"
     transform="scale(0.4,0.4)" /></marker><marker
   inkscape:stockid="TriangleOutM"
   orient="auto"
   refY="0"
   refX="0"
   id="marker4234"
   style="overflow:visible"><path
     inkscape:connector-curvature="0"
     id="path4236"
     d="m 5.77,0 -8.65,5 0,-10 8.65,5 z"
     style="fill-rule:evenodd;stroke:#000000;stroke-width:1pt;marker-start:none"
     transform="scale(0.4,0.4)" /></marker><marker
   inkscape:stockid="TriangleOutM"
   orient="auto"
   refY="0"
   refX="0"
   id="marker4230"
   style="overflow:visible"><path
     inkscape:connector-curvature="0"
     id="path4232"
     d="m 5.77,0 -8.65,5 0,-10 8.65,5 z"
     style="fill-rule:evenodd;stroke:#000000;stroke-width:1pt;marker-start:none"
     transform="scale(0.4,0.4)" /></marker><marker
   inkscape:stockid="TriangleOutM"
   orient="auto"
   refY="0"
   refX="0"
   id="TriangleOutM"
   style="overflow:visible"><path
     inkscape:connector-curvature="0"
     id="path4281"
     d="m 5.77,0 -8.65,5 0,-10 8.65,5 z"
     style="fill-rule:evenodd;stroke:#000000;stroke-width:1pt;marker-start:none"
     transform="scale(0.4,0.4)" /></marker><inkscape:path-effect
   is_visible="true"
   id="path-effect5065"
   effect="spiro" /><inkscape:path-effect
   is_visible="true"
   id="path-effect5043"
   effect="spiro" /><marker
   style="overflow:visible"
   id="Arrow1SstartI"
   refX="0"
   refY="0"
   orient="auto"
   inkscape:stockid="Arrow1SstartI"><path
     inkscape:connector-curvature="0"
     transform="matrix(0.2,0,0,0.2,1.2,0)"
     style="marker-start:none;stroke:#4a80da;stroke-width:1pt;fill:#4a80da;fill-rule:evenodd"
     d="M 0,0 5,-5 -12.5,0 5,5 0,0 z"
     id="path5274" /></marker><marker
   style="overflow:visible"
   id="Arrow1Sendo"
   refX="0"
   refY="0"
   orient="auto"
   inkscape:stockid="Arrow1Sendo"><path
     inkscape:connector-curvature="0"
     transform="matrix(-0.2,0,0,-0.2,-1.2,0)"
     style="marker-start:none;stroke:#4a80da;stroke-width:1pt;fill:#4a80da;fill-rule:evenodd"
     d="M 0,0 5,-5 -12.5,0 5,5 0,0 z"
     id="path5838" /></marker>



<marker
   style="overflow:visible"
   id="Arrow1Sendoa"
   refX="0"
   refY="0"
   orient="auto"
   inkscape:stockid="Arrow1Sendoa"><path
     inkscape:connector-curvature="0"
     transform="matrix(-0.2,0,0,-0.2,-1.2,0)"
     style="fill-rule:evenodd;marker-start:none;stroke:#da5c4b;stroke-width:1pt;fill:#da5c4b"
     d="M 0,0 5,-5 -12.5,0 5,5 0,0 z"
     id="path10327" /></marker>








<marker
   style="overflow:visible"
   id="Arrow1Sendom"
   refX="0"
   refY="0"
   orient="auto"
   inkscape:stockid="Arrow1Sendom"><path
     inkscape:connector-curvature="0"
     transform="matrix(-0.2,0,0,-0.2,-1.2,0)"
     style="fill-rule:evenodd;marker-start:none;stroke:#da9e4b;stroke-width:1pt;fill:#da9e4b"
     d="M 0,0 5,-5 -12.5,0 5,5 0,0 z"
     id="path11311" /></marker>



<marker
   style="overflow:visible"
   id="Arrow1Sendom-0"
   refX="0"
   refY="0"
   orient="auto"
   inkscape:stockid="Arrow1Sendom"><path
     inkscape:connector-curvature="0"
     transform="matrix(-0.2,0,0,-0.2,-1.2,0)"
     style="fill:#da9e4b;fill-rule:evenodd;stroke:#da9e4b;stroke-width:1pt;marker-start:none"
     d="M 0,0 5,-5 -12.5,0 5,5 0,0 z"
     id="path11311-7" /></marker><marker
   style="overflow:visible"
   id="Arrow1Sendom-4"
   refX="0"
   refY="0"
   orient="auto"
   inkscape:stockid="Arrow1Sendom"><path
     inkscape:connector-curvature="0"
     transform="matrix(-0.2,0,0,-0.2,-1.2,0)"
     style="fill:#da9e4b;fill-rule:evenodd;stroke:#da9e4b;stroke-width:1pt;marker-start:none"
     d="M 0,0 5,-5 -12.5,0 5,5 0,0 z"
     id="path11311-5" /></marker><marker
   style="overflow:visible"
   id="marker11717"
   refX="0"
   refY="0"
   orient="auto"
   inkscape:stockid="Arrow1Sendom"><path
     inkscape:connector-curvature="0"
     transform="matrix(-0.2,0,0,-0.2,-1.2,0)"
     style="fill:#da9e4b;fill-rule:evenodd;stroke:#da9e4b;stroke-width:1pt;marker-start:none"
     d="M 0,0 5,-5 -12.5,0 5,5 0,0 z"
     id="path11719" /></marker><marker
   style="overflow:visible"
   id="Arrow1Sendo-2"
   refX="0"
   refY="0"
   orient="auto"
   inkscape:stockid="Arrow1Sendo"><path
     inkscape:connector-curvature="0"
     transform="matrix(-0.2,0,0,-0.2,-1.2,0)"
     style="fill:#4a80da;fill-rule:evenodd;stroke:#4a80da;stroke-width:1pt;marker-start:none"
     d="M 0,0 5,-5 -12.5,0 5,5 0,0 z"
     id="path5838-1" /></marker><marker
   style="overflow:visible"
   id="marker11753"
   refX="0"
   refY="0"
   orient="auto"
   inkscape:stockid="Arrow1Sendo"><path
     inkscape:connector-curvature="0"
     transform="matrix(-0.2,0,0,-0.2,-1.2,0)"
     style="fill:#4a80da;fill-rule:evenodd;stroke:#4a80da;stroke-width:1pt;marker-start:none"
     d="M 0,0 5,-5 -12.5,0 5,5 0,0 z"
     id="path11755" /></marker><marker
   style="overflow:visible"
   id="Arrow1SstartI-6"
   refX="0"
   refY="0"
   orient="auto"
   inkscape:stockid="Arrow1SstartI"><path
     inkscape:connector-curvature="0"
     transform="matrix(0.2,0,0,0.2,1.2,0)"
     style="fill:#4a80da;fill-rule:evenodd;stroke:#4a80da;stroke-width:1pt;marker-start:none"
     d="M 0,0 5,-5 -12.5,0 5,5 0,0 z"
     id="path5274-7" /></marker><marker
   style="overflow:visible"
   id="Arrow1Sendf"
   refX="0"
   refY="0"
   orient="auto"
   inkscape:stockid="Arrow1Sendf"><path
     inkscape:connector-curvature="0"
     transform="matrix(-0.2,0,0,-0.2,-1.2,0)"
     style="marker-start:none;stroke:#da9e4b;stroke-width:1pt;fill:#da9e4b;fill-rule:evenodd"
     d="M 0,0 5,-5 -12.5,0 5,5 0,0 z"
     id="path12685" /></marker>






<marker
   style="overflow:visible"
   id="Arrow1Sends"
   refX="0"
   refY="0"
   orient="auto"
   inkscape:stockid="Arrow1Sends"><path
     inkscape:connector-curvature="0"
     transform="matrix(-0.2,0,0,-0.2,-1.2,0)"
     style="marker-start:none;stroke:#57da4b;stroke-width:1pt;fill:#57da4b;fill-rule:evenodd"
     d="M 0,0 5,-5 -12.5,0 5,5 0,0 z"
     id="path13327" /></marker><marker
   style="overflow:visible"
   id="Arrow1SendQ"
   refX="0"
   refY="0"
   orient="auto"
   inkscape:stockid="Arrow1SendQ"><path
     inkscape:connector-curvature="0"
     transform="matrix(-0.2,0,0,-0.2,-1.2,0)"
     style="marker-start:none;stroke:#57da4b;stroke-width:1pt;fill:#57da4b;fill-rule:evenodd"
     d="M 0,0 5,-5 -12.5,0 5,5 0,0 z"
     id="path13972" /></marker></defs>



















<g
   inkscape:export-ydpi="90"
   inkscape:export-xdpi="90"
   inkscape:export-filename="/Users/massimomenichinelli/Documents/Github/Design-with-the-user_Slides/images/distributed_vcs.png"
   transform="matrix(0.5,0,0,0.5,234.43138,242.7576)"
   id="g3198"><g
     id="g3172"
     transform="translate(124.57627,-0.42372836)"><path
       id="path3156"
       d="M 50,0 C 22.386,0 0,3.214 0,7.179 v 21.886 c 0,3.964 22.386,7.179 50,7.179 27.612,0 50,-3.215 50,-7.179 V 7.179 C 100,3.214 77.612,0 50,0 z"
       inkscape:connector-curvature="0" /><g
       id="g3158">
	<path
   id="path3160"
   d="M 50,46.24 C 22.386,46.24 0,43.025 0,39.061 v 21.885 c 0,3.964 22.386,7.18 50,7.18 27.612,0 50,-3.216 50,-7.18 V 39.061 c 0,3.964 -22.388,7.179 -50,7.179 z"
   inkscape:connector-curvature="0" />
</g><g
       id="g3162">
	<path
   id="path3164"
   d="M 50,78.116 C 22.386,78.116 0,74.9 0,70.935 V 92.821 C 0,96.787 22.386,100 50,100 c 27.612,0 50,-3.213 50,-7.179 V 70.936 c 0,3.964 -22.388,7.18 -50,7.18 z"
   inkscape:connector-curvature="0" />
</g></g></g><text
   inkscape:export-ydpi="90"
   inkscape:export-xdpi="90"
   inkscape:export-filename="/Users/massimomenichinelli/Documents/Github/Design-with-the-user_Slides/images/distributed_vcs.png"
   sodipodi:linespacing="125%"
   id="text3620"
   y="318.23526"
   x="321.25748"
   style="font-size:20px;font-style:normal;font-variant:normal;font-weight:normal;font-stretch:normal;text-align:center;line-height:125%;letter-spacing:0px;word-spacing:0px;writing-mode:lr-tb;text-anchor:middle;fill:#000000;fill-opacity:1;stroke:none;font-family:PT Sans;-inkscape-font-specification:PT Sans"
   xml:space="preserve"><tspan
     y="318.23526"
     x="321.25748"
     id="tspan6025"
     sodipodi:role="line">Remote Repository</tspan></text>







<path
   inkscape:export-ydpi="90"
   inkscape:export-xdpi="90"
   inkscape:export-filename="/Users/massimomenichinelli/Documents/Github/Design-with-the-user_Slides/images/distributed_vcs.png"
   inkscape:connector-curvature="0"
   id="path4460"
   d="m 233.97533,420.76197 68.7058,-83.54423"
   style="fill:none;stroke:#000000;stroke-width:4;stroke-linecap:butt;stroke-linejoin:miter;stroke-miterlimit:4;stroke-opacity:1;stroke-dasharray:4.00000007, 4.00000007;stroke-dashoffset:0;marker-start:url(#Arrow1Sstart);marker-end:url(#Arrow1Send)" /><path
   inkscape:export-ydpi="90"
   inkscape:export-xdpi="90"
   inkscape:export-filename="/Users/massimomenichinelli/Documents/Github/Design-with-the-user_Slides/images/distributed_vcs.png"
   inkscape:connector-curvature="0"
   id="path4462"
   d="M 138.03253,403.84162 397.6636,72.188173"
   style="fill:none;stroke:#000000;stroke-width:4;stroke-linecap:butt;stroke-linejoin:miter;stroke-miterlimit:4;stroke-opacity:1;stroke-dasharray:4.00000007, 4.00000007;stroke-dashoffset:0;marker-start:url(#Arrow1Sstart);marker-end:url(#Arrow1Send)" /><path
   inkscape:export-ydpi="90"
   inkscape:export-xdpi="90"
   inkscape:export-filename="/Users/massimomenichinelli/Documents/Github/Design-with-the-user_Slides/images/distributed_vcs.png"
   inkscape:connector-curvature="0"
   id="path4464"
   d="M 932.10193,489.87175 423.13991,64.182239"
   style="fill:none;stroke:#000000;stroke-width:4;stroke-linecap:butt;stroke-linejoin:miter;stroke-miterlimit:4;stroke-opacity:1;stroke-dasharray:4.00000007, 4.00000007;stroke-dashoffset:0;marker-start:url(#Arrow1Sstart);marker-end:url(#Arrow1Send)" /><g
   inkscape:export-ydpi="90"
   inkscape:export-xdpi="90"
   inkscape:export-filename="/Users/massimomenichinelli/Documents/Github/Design-with-the-user_Slides/images/distributed_vcs.png"
   id="g6027"
   transform="matrix(0.5,0,0,0.5,486.62941,338.73132)"><g
     transform="translate(124.57627,-0.42372836)"
     id="g6029"><path
       inkscape:connector-curvature="0"
       d="M 50,0 C 22.386,0 0,3.214 0,7.179 v 21.886 c 0,3.964 22.386,7.179 50,7.179 27.612,0 50,-3.215 50,-7.179 V 7.179 C 100,3.214 77.612,0 50,0 z"
       id="path6031" /><g
       id="g6033">
	<path
   inkscape:connector-curvature="0"
   d="M 50,46.24 C 22.386,46.24 0,43.025 0,39.061 v 21.885 c 0,3.964 22.386,7.18 50,7.18 27.612,0 50,-3.216 50,-7.18 V 39.061 c 0,3.964 -22.388,7.179 -50,7.179 z"
   id="path6035" />
</g><g
       id="g6037">
	<path
   inkscape:connector-curvature="0"
   d="M 50,78.116 C 22.386,78.116 0,74.9 0,70.935 V 92.821 C 0,96.787 22.386,100 50,100 c 27.612,0 50,-3.213 50,-7.179 V 70.936 c 0,3.964 -22.388,7.18 -50,7.18 z"
   id="path6039" />
</g></g></g><text
   inkscape:export-ydpi="90"
   inkscape:export-xdpi="90"
   inkscape:export-filename="/Users/massimomenichinelli/Documents/Github/Design-with-the-user_Slides/images/distributed_vcs.png"
   xml:space="preserve"
   style="font-size:20px;font-style:normal;font-variant:normal;font-weight:normal;font-stretch:normal;text-align:center;line-height:125%;letter-spacing:0px;word-spacing:0px;writing-mode:lr-tb;text-anchor:middle;fill:#000000;fill-opacity:1;stroke:none;font-family:PT Sans;-inkscape-font-specification:PT Sans"
   x="573.45551"
   y="414.20898"
   id="text6041"
   sodipodi:linespacing="125%"><tspan
     sodipodi:role="line"
     id="tspan6043"
     x="573.45551"
     y="414.20898">Remote Repository</tspan></text>







<path
   inkscape:export-ydpi="90"
   inkscape:export-xdpi="90"
   inkscape:export-filename="/Users/massimomenichinelli/Documents/Github/Design-with-the-user_Slides/images/distributed_vcs.png"
   style="fill:none;stroke:#000000;stroke-width:4;stroke-linecap:butt;stroke-linejoin:miter;stroke-miterlimit:4;stroke-opacity:1;stroke-dasharray:4.00000007, 4.00000007;stroke-dashoffset:0;marker-start:url(#Arrow1Sstart);marker-end:url(#Arrow1Send)"
   d="M 494.72105,635.79215 554.99076,429.78936"
   id="path6045"
   inkscape:connector-curvature="0" /><path
   inkscape:export-ydpi="90"
   inkscape:export-xdpi="90"
   inkscape:export-filename="/Users/massimomenichinelli/Documents/Github/Design-with-the-user_Slides/images/distributed_vcs.png"
   inkscape:connector-curvature="0"
   id="path6065"
   d="M 921.05375,499.82135 669.19302,415.1364"
   style="fill:none;stroke:#000000;stroke-width:4;stroke-linecap:butt;stroke-linejoin:miter;stroke-miterlimit:4;stroke-opacity:1;stroke-dasharray:4.00000007, 4.00000007;stroke-dashoffset:0;marker-start:url(#Arrow1Sstart);marker-end:url(#Arrow1Send)" /><g
   transform="translate(-35.749336,69.512598)"
   id="g4266"><path
   d="m 48.48396,412.50764 v -5.07313 c 0,0 0.33015,-3.11418 4.08043,-4.08043 0,0 6.03995,-2.20529 10.77055,-4.26435 2.44658,-1.06412 2.97301,-1.7036 5.44096,-2.79416 0,0 0.25759,-1.26715 0.16479,-2.02137 h 1.93026 c 0,0 0.44095,0.25703 0,-2.72048 0,0 -2.35265,-0.6243 -2.46232,-5.36671 0,0 -1.76716,0.59505 -1.87514,-2.27897 -0.0737,-1.94826 -1.581,-3.63949 0.5883,-5.03601 l -1.10293,-2.97751 c 0,0 -2.20529,-12.02027 4.13556,-10.25592 -2.67493,-3.19798 15.16313,-6.3954 16.32174,3.74972 0,0 0.82621,5.47752 0,9.22668 0,0 2.60517,-0.30146 0.86333,4.70586 0,0 -0.95557,3.60237 -2.42633,2.79359 0,0 0.24016,4.55794 -2.07593,5.33072 0,0 0.16479,2.42576 0.16479,2.59112 l 2.20642,0.33071 c 0,0 -0.33184,1.98538 0.0551,2.20529 0,0 2.61586,1.7919 5.73398,2.59224 6.01069,1.54275 13.12319,4.19011 13.12319,6.5062 0,0 0.60687,3.08775 0.60687,6.83691 H 48.48394 z"
   id="path3"
   inkscape:connector-curvature="0"
   style="fill:#000000" /><g
   id="g3301"
   transform="matrix(1.1404145,0,0,1.1404145,126.7565,338.84957)"><path
     inkscape:connector-curvature="0"
     id="rect14879"
     d="m 5.6875,27.84375 c -1.5691496,0 -2.78125,1.371922 -2.78125,2.9375 l 0,24.90625 c 0,1.565578 1.2121004,2.9375 2.78125,2.9375 l 43.65625,0 c 1.569149,0 2.78125,-1.371922 2.78125,-2.9375 l 0,-24.90625 c 0,-1.565578 -1.212101,-2.9375 -2.78125,-2.9375 l -43.65625,0 z m 0,1.96875 43.65625,0 c 0.402321,0 0.78125,0.383632 0.78125,0.96875 l 0,24.90625 c 0,0.585118 -0.378929,0.9375 -0.78125,0.9375 l -43.65625,0 c -0.4023214,0 -0.78125,-0.352382 -0.78125,-0.9375 l 0,-24.90625 c 0,-0.585118 0.3789286,-0.96875 0.78125,-0.96875 z"
     style="font-size:medium;font-style:normal;font-variant:normal;font-weight:normal;font-stretch:normal;text-indent:0;text-align:start;text-decoration:none;line-height:normal;letter-spacing:normal;word-spacing:normal;text-transform:none;direction:ltr;block-progression:tb;writing-mode:lr-tb;text-anchor:start;baseline-shift:baseline;color:#000000;fill:#000000;fill-opacity:1;stroke:none;stroke-width:1.99289596;marker:none;visibility:visible;display:inline;overflow:visible;enable-background:accumulate;font-family:Sans;-inkscape-font-specification:Sans" /><path
     id="rect14881"
     d="m 22.729477,58.416885 9.563792,0 0,3.4171 -9.563792,0 z"
     style="fill:#000000;stroke:none"
     inkscape:connector-curvature="0" /><path
     inkscape:connector-curvature="0"
     id="path14885"
     d="m 2.6510111,61.495933 a 1.9954639,1.9954639 0 0 0 1.9306181,2.80251 l 44.8401578,0 a 1.9930952,1.9930952 0 0 0 1.85277,-2.80251 l -48.6235459,0 z"
     style="font-size:medium;font-style:normal;font-variant:normal;font-weight:normal;font-stretch:normal;text-indent:0;text-align:start;text-decoration:none;line-height:normal;letter-spacing:normal;word-spacing:normal;text-transform:none;direction:ltr;block-progression:tb;writing-mode:lr-tb;text-anchor:start;baseline-shift:baseline;color:#000000;fill:#000000;fill-opacity:1;stroke:none;stroke-width:8;marker:none;visibility:visible;display:inline;overflow:visible;enable-background:accumulate;font-family:Sans;-inkscape-font-specification:Sans" /><path
     inkscape:connector-curvature="0"
     d="m 59.419581,62.009801 a 0.38959481,0.38959481 0 0 1 0.02297,0 0.38600559,0.38600559 0 0 1 0.02297,0 0.38272919,0.38272919 0 0 1 0.02302,0 0.3797737,0.3797737 0 0 1 0.02296,0 0.37714668,0.37714668 0 0 1 0.02298,0 0.37290498,0.37290498 0 0 1 0.04604,0 0.37005016,0.37005016 0 0 1 0.04603,0 0.36847144,0.36847144 0 0 1 0.06905,0 l 14.737388,0 a 0.36847144,0.36847144 0 0 1 0.138157,0.02292 0.36847144,0.36847144 0 0 1 0.02297,0.02291 0.36847144,0.36847144 0 0 1 0.04602,0 0.36847144,0.36847144 0 0 1 0.09211,0.11509 0.36847144,0.36847144 0 0 1 0.02297,0.02291 0.36847144,0.36847144 0 0 1 0.02297,0.04583 0.36847144,0.36847144 0 0 1 0,0.02291 0.36847144,0.36847144 0 0 1 0.02304,0.04583 0.36847144,0.36847144 0 0 1 0,0.02291 0.36847144,0.36847144 0 0 1 0,0.04583 0.36847144,0.36847144 0 0 1 0,0.06926 0.36847144,0.36847144 0 0 1 0,0.02291 0.36847144,0.36847144 0 0 1 -0.02304,0.04583 0.36847144,0.36847144 0 0 1 -0.02297,0.06926 0.36847144,0.36847144 0 0 1 -0.02297,0.02291 0.36847144,0.36847144 0 0 1 -0.161189,0.115089 0.36847144,0.36847144 0 0 1 -0.138164,0.02291 l -14.737381,0 a 0.39349102,0.39349102 0 0 1 -0.276343,-0.736849 z m 0,-1.473745 a 0.38959481,0.38959481 0 0 1 0.02297,0 0.38600559,0.38600559 0 0 1 0.02297,0 0.38272919,0.38272919 0 0 1 0.02302,0 0.3797737,0.3797737 0 0 1 0.02296,0 0.37714668,0.37714668 0 0 1 0.02298,0 0.37290498,0.37290498 0 0 1 0.04604,0 0.37005016,0.37005016 0 0 1 0.04603,0 0.36847144,0.36847144 0 0 1 0.06905,0 l 14.737388,0 a 0.36847144,0.36847144 0 1 1 0,0.736872 l -14.737388,0 a 0.39349005,0.39349005 0 1 1 -0.276324,-0.736872 z m 0,-1.473699 a 0.38959481,0.38959481 0 0 1 0.02297,0 0.38600559,0.38600559 0 0 1 0.02297,0 0.38272919,0.38272919 0 0 1 0.02302,0 0.3797737,0.3797737 0 0 1 0.02296,0 0.37714668,0.37714668 0 0 1 0.02298,0 0.37290498,0.37290498 0 0 1 0.04604,0 0.37005016,0.37005016 0 0 1 0.04603,0 0.36847144,0.36847144 0 0 1 0.06905,0 l 14.737388,0 a 0.36847144,0.36847144 0 1 1 0,0.736874 l -14.737388,0 a 0.39349023,0.39349023 0 0 1 -0.276324,-0.736874 z m 0,-1.473745 a 0.38959481,0.38959481 0 0 1 0.02297,0 0.38600559,0.38600559 0 0 1 0.02297,0 0.38272919,0.38272919 0 0 1 0.02302,0 0.3797737,0.3797737 0 0 1 0.02296,0 0.37714668,0.37714668 0 0 1 0.02298,0 0.37290498,0.37290498 0 0 1 0.04604,0 0.37005016,0.37005016 0 0 1 0.04603,0 0.36847144,0.36847144 0 0 1 0.06905,0 l 14.737388,0 a 0.36847144,0.36847144 0 1 1 0,0.736874 l -14.737388,0 a 0.39349023,0.39349023 0 0 1 -0.276324,-0.736874 z m 0,-1.473748 a 0.38959481,0.38959481 0 0 1 0.02297,0 0.38600559,0.38600559 0 0 1 0.02297,0 0.38272919,0.38272919 0 0 1 0.02302,0 0.3797737,0.3797737 0 0 1 0.02296,0 0.37714668,0.37714668 0 0 1 0.02298,0 0.37290498,0.37290498 0 0 1 0.04604,0 0.37005016,0.37005016 0 0 1 0.04603,0 0.36847144,0.36847144 0 0 1 0.06905,0 l 14.737388,0 a 0.36847144,0.36847144 0 1 1 0,0.736874 l -14.737388,0 a 0.39349023,0.39349023 0 0 1 -0.276324,-0.736874 z m 0,-1.473745 a 0.38959481,0.38959481 0 0 1 0.02297,0 0.38600559,0.38600559 0 0 1 0.02297,0 0.38272919,0.38272919 0 0 1 0.02302,0 0.3797737,0.3797737 0 0 1 0.02296,0 0.37714668,0.37714668 0 0 1 0.02298,0 0.37290498,0.37290498 0 0 1 0.04604,0 0.37005016,0.37005016 0 0 1 0.04603,0 0.36847144,0.36847144 0 0 1 0.06905,0 l 14.737388,0 a 0.36847144,0.36847144 0 1 1 0,0.736874 l -14.737388,0 a 0.39349023,0.39349023 0 0 1 -0.276324,-0.736874 z m 0,-1.473747 a 0.38959481,0.38959481 0 0 1 0.02297,0 0.38600559,0.38600559 0 0 1 0.02297,0 0.38272919,0.38272919 0 0 1 0.02302,0 0.3797737,0.3797737 0 0 1 0.02296,0 0.37714668,0.37714668 0 0 1 0.02298,0 0.37290498,0.37290498 0 0 1 0.04604,0 0.37005016,0.37005016 0 0 1 0.04603,0 0.36847144,0.36847144 0 0 1 0.06905,0 l 14.737388,0 a 0.36847144,0.36847144 0 1 1 0,0.736873 l -14.737388,0 a 0.39349005,0.39349005 0 0 1 -0.276324,-0.736873 z m 4.651488,-16.579548 c 0.40696,0 0.736866,0.329924 0.736866,0.736873 0,0.406949 -0.329906,0.736874 -0.736866,0.736874 -0.406964,0 -0.736868,-0.329925 -0.736868,-0.736874 0,-0.406949 0.329904,-0.736873 0.736868,-0.736873 z m -2.164553,0 c 0.406959,0 0.736868,0.329924 0.736868,0.736873 0,0.406949 -0.329909,0.736874 -0.736868,0.736874 -0.406964,0 -0.736868,-0.329925 -0.736868,-0.736874 0,-0.406949 0.329904,-0.736873 0.736868,-0.736873 z m 9.34903,-0.09212 a 0.24613225,0.24613225 0 0 1 0.0921,0.483527 c -0.07339,0.05455 -0.153028,0.133524 -0.207235,0.207311 -0.303699,0.412928 -0.205742,0.985785 0.207235,1.289503 0.412979,0.303667 0.985837,0.205767 1.289529,-0.207261 0.303693,-0.412928 0.205723,-0.985785 -0.207249,-1.289553 a 0.23082987,0.23082987 0 0 1 -0.02297,-0.02292 0.23082987,0.23082987 0 0 1 -0.04602,-0.06926 0.23082987,0.23082987 0 0 1 0,-0.184244 0.23082987,0.23082987 0 0 1 0.04602,-0.06926 0.23082987,0.23082987 0 0 1 0.02297,-0.02291 0.23082987,0.23082987 0 0 1 0.115133,-0.04583 0.23082987,0.23082987 0 0 1 0.161195,0.04583 c 0.613955,0.45144 0.750842,1.320293 0.299351,1.934255 -0.451491,0.61396 -1.32033,0.750873 -1.934279,0.299382 -0.613956,-0.45149 -0.750848,-1.320293 -0.299352,-1.934255 0.08131,-0.110606 0.166208,-0.217375 0.276322,-0.299382 a 0.23282653,0.23282653 0 0 1 0.04602,-0.02292 0.23282653,0.23282653 0 0 1 0.02297,-0.02291 0.23707914,0.23707914 0 0 1 0.02304,-0.02291 0.24205918,0.24205918 0 0 1 0.04602,-0.02292 0.24396841,0.24396841 0 0 1 0.06905,-0.02291 z m 0.598703,-0.64475 a 0.23082987,0.23082987 0 0 1 0.161194,0.04583 0.23082987,0.23082987 0 0 1 0.02297,0.02292 0.23082987,0.23082987 0 0 1 0.02304,0.02291 0.23082987,0.23082987 0 0 1 0.04602,0.161175 l 0,1.381625 a 0.23082987,0.23082987 0 0 1 -0.04602,0.138158 0.23082987,0.23082987 0 0 1 -0.02304,0.02291 0.23082987,0.23082987 0 0 1 -0.06905,0.04583 0.23082987,0.23082987 0 0 1 -0.230268,-0.02291 0.23082987,0.23082987 0 0 1 -0.02305,-0.02291 0.23082987,0.23082987 0 0 1 -0.02297,-0.02291 0.23082987,0.23082987 0 0 1 -0.04602,-0.138157 l 0,-1.381626 a 0.23082987,0.23082987 0 0 1 0.04602,-0.138158 0.23082987,0.23082987 0 0 1 0.02297,-0.02291 0.23082987,0.23082987 0 0 1 0.02305,-0.02292 0.23082987,0.23082987 0 0 1 0.09211,-0.04583 0.23082987,0.23082987 0 0 1 0.02304,-0.02292 z m -11.42147,-2.947493 13.263646,0 0,2.210619 -13.263646,0 0,-2.210619 z m 0,-2.947444 13.263646,0 0,2.210619 -13.263646,0 0,-2.210619 z m 0,-2.947493 13.263646,0 0,2.210619 -13.263646,0 0,-2.210619 z m 0,-2.947493 13.263646,0 0,2.210619 -13.263646,0 0,-2.210619 z m -2.21061,-3.31588 0,43.843709 18.053294,0 0,-43.843709 -18.053294,0 z"
     style="fill:#000000;stroke:none"
     id="path5203" /></g><text
   sodipodi:linespacing="125%"
   id="text3624"
   y="439.83847"
   x="76.145447"
   style="font-size:20px;font-style:normal;font-variant:normal;font-weight:normal;font-stretch:normal;text-align:center;line-height:125%;letter-spacing:0px;word-spacing:0px;text-anchor:middle;fill:#000000;fill-opacity:1;stroke:none;font-family:PT Sans;-inkscape-font-specification:PT Sans"
   xml:space="preserve"
   inkscape:export-filename="/Users/massimomenichinelli/Documents/Github/Design-with-the-user_Slides/images/distributed_vcs.png"
   inkscape:export-xdpi="90"
   inkscape:export-ydpi="90"><tspan
     y="439.83847"
     x="76.145447"
     id="tspan3626"
     sodipodi:role="line">Carl</tspan></text>









<g
   transform="matrix(0.5,0,0,0.5,171.59602,362.7195)"
   id="g5983"
   inkscape:export-filename="/Users/massimomenichinelli/Documents/Github/Design-with-the-user_Slides/images/distributed_vcs.png"
   inkscape:export-xdpi="90"
   inkscape:export-ydpi="90"><g
     id="g5985"
     transform="translate(124.57627,-0.42372836)"><path
       id="path5987"
       d="M 50,0 C 22.386,0 0,3.214 0,7.179 v 21.886 c 0,3.964 22.386,7.179 50,7.179 27.612,0 50,-3.215 50,-7.179 V 7.179 C 100,3.214 77.612,0 50,0 z"
       inkscape:connector-curvature="0" /><g
       id="g5989">
	<path
   id="path5991"
   d="M 50,46.24 C 22.386,46.24 0,43.025 0,39.061 v 21.885 c 0,3.964 22.386,7.18 50,7.18 27.612,0 50,-3.216 50,-7.18 V 39.061 c 0,3.964 -22.388,7.179 -50,7.179 z"
   inkscape:connector-curvature="0" />
</g><g
       id="g5993">
	<path
   id="path5995"
   d="M 50,78.116 C 22.386,78.116 0,74.9 0,70.935 V 92.821 C 0,96.787 22.386,100 50,100 c 27.612,0 50,-3.213 50,-7.179 V 70.936 c 0,3.964 -22.388,7.18 -50,7.18 z"
   inkscape:connector-curvature="0" />
</g></g></g><text
   sodipodi:linespacing="125%"
   id="text6067"
   y="439.83847"
   x="258.7229"
   style="font-size:20px;font-style:normal;font-variant:normal;font-weight:normal;font-stretch:normal;text-align:center;line-height:125%;letter-spacing:0px;word-spacing:0px;writing-mode:lr-tb;text-anchor:middle;fill:#000000;fill-opacity:1;stroke:none;font-family:PT Sans;-inkscape-font-specification:PT Sans"
   xml:space="preserve"
   inkscape:export-filename="/Users/massimomenichinelli/Documents/Github/Design-with-the-user_Slides/images/distributed_vcs.png"
   inkscape:export-xdpi="90"
   inkscape:export-ydpi="90"><tspan
     sodipodi:role="line"
     id="tspan6071"
     x="258.7229"
     y="439.83847">Local Version</tspan></text>









</g><g
   transform="translate(-35.749336,69.512598)"
   id="g4338"><g
   id="g3388"
   transform="matrix(0.58358719,0,0,0.58358719,397.43128,568.09559)"><g
     id="Layer_1-0">
	<path
   id="path3374"
   d="m 57.982,14.233 -0.593,-2.188 3.373,3.947 v 1.697 c 2.522,1.077 4.6,2.705 6.236,4.886 -0.723,-0.177 -1.397,-0.327 -2.025,-0.45 -1.253,-0.246 -1.668,-0.211 -1.246,0.103 0.463,0.367 1.321,1.847 2.576,4.437 1.187,2.494 1.895,4.219 2.126,5.172 0.178,0.737 -0.121,2.965 -0.898,6.687 -0.382,1.867 -0.783,3.653 -1.207,5.357 l -0.45,0.735 c -0.162,0.437 0.13,0.531 0.879,0.286 0.737,-0.245 1.193,0.015 1.37,0.778 0.095,0.394 0.115,0.811 0.062,1.246 l -1.391,4.846 c -0.968,3.285 -1.595,5.078 -1.882,5.379 -0.299,0.298 -0.749,0.319 -1.35,0.06 -0.313,-0.081 -0.49,-0.286 -0.532,-0.613 l 0.083,0.92 c -0.014,0.969 -0.13,2.088 -0.348,3.354 -0.231,1.269 -0.907,2.766 -2.023,4.498 l -2.169,2.537 c -0.408,1.622 -0.668,2.608 -0.776,2.964 -0.041,0 -0.062,0.02 -0.062,0.061 -0.026,0.149 -0.008,0.13 0.062,-0.061 0.245,0.015 1.282,0.947 3.107,2.8 1.064,1.052 2.113,2.135 3.149,3.253 15.416,5.139 25.456,8.416 30.118,9.835 V 94.59 H 6.333 V 91.4 c 1.322,-0.382 2.618,-0.723 3.885,-1.021 1.063,-0.831 4.151,-2.577 9.262,-5.235 2.48,-1.308 4.873,-2.536 7.177,-3.681 0,-0.246 0,-0.524 0,-0.837 0,-1.786 0.715,-3.45 2.146,-4.988 0.709,-0.767 1.417,-1.35 2.127,-1.761 0.612,-0.587 1.056,-1.31 1.328,-2.168 0.218,-0.682 0.443,-1.13 0.675,-1.348 -0.558,-1.35 -1.335,-2.42 -2.33,-3.212 -1.65,-1.336 -2.815,-3.646 -3.498,-6.93 -0.218,-1.038 -0.375,-2.101 -0.47,-3.19 l -0.062,-1.35 c -0.967,0.341 -1.642,0.457 -2.023,0.348 -0.382,-0.109 -0.934,-1.629 -1.656,-4.56 -0.791,-3.176 -1.111,-5.732 -0.961,-7.668 0.136,-1.786 0.743,-2.645 1.819,-2.576 0.532,0.042 1.042,0.26 1.534,0.654 -0.341,-1.077 -0.695,-2.263 -1.064,-3.558 -0.735,-2.576 -1.137,-4.621 -1.205,-6.134 -0.069,-1.445 0.708,-3.633 2.331,-6.564 0.395,-0.708 0.919,-1.635 1.574,-2.781 0.422,-0.804 0.579,-1.26 0.47,-1.37 -0.176,-0.191 -0.176,-0.435 0,-0.736 0.259,-0.422 0.403,-0.708 0.43,-0.858 0.067,-0.504 0.661,-1.036 1.779,-1.596 0.451,-0.231 2.611,-1.411 6.481,-3.536 l 0.409,-0.594 -1.084,-0.675 -0.756,-1.349 -0.593,-1.513 3.373,0.715 -0.757,-0.206 1.35,-0.264 c 0.327,-0.342 0.436,-0.512 0.327,-0.512 l 0.082,-0.737 0.592,0.409 0.512,-0.163 0.491,-0.941 0.246,0.654 c 0.189,0.505 0.395,0.961 0.613,1.37 0.191,0.382 0.361,0.607 0.512,0.675 0.272,0.123 0.49,0.266 0.653,0.429 0.288,0.273 0.532,0.354 0.737,0.246 0.096,-0.054 0.164,-0.136 0.204,-0.246 -0.286,-0.504 -0.573,-0.899 -0.858,-1.185 -0.163,-0.178 -0.313,-0.471 -0.45,-0.88 l -0.123,-0.552 1.431,0.592 1.269,1.104 1.512,0.083 -0.674,-0.92 c 0,-0.34 -0.145,-0.653 -0.429,-0.94 -0.178,-0.178 0.095,-0.089 0.817,0.265 0.355,0.178 0.73,0.375 1.125,0.594 l 0.838,0.081 0.53,0.225 c 0.396,0.218 0.75,0.45 1.064,0.695 0.329,0.246 0.552,0.095 0.675,-0.45 0.095,-0.682 0.157,-1.098 0.183,-1.247 0.028,-0.178 0.246,-0.328 0.655,-0.451 0.203,-0.054 0.401,-0.102 0.592,-0.143 l 1.37,2.291 c 0.163,0.273 0.497,0.75 1.001,1.431 L 53.83,12.39 c 0.203,-0.191 0.271,-0.389 0.203,-0.594 l -0.858,-2.617 0.307,0.042 c 0.232,0.081 0.443,0.266 0.634,0.552 0.273,0.436 0.92,1.526 1.943,3.271 l 1.164,2.024 0.759,-0.835 z"
   clip-rule="evenodd"
   inkscape:connector-curvature="0"
   style="fill:#000000;fill-rule:evenodd" />
</g><g
     display="none"
     id="Layer_1_copy"
     style="display:none">
	<path
   id="path3377"
   d="m 57.809,20.904 -0.511,-1.888 2.908,3.404 v 1.463 c 2.176,0.929 3.968,2.333 5.379,4.214 -0.623,-0.152 -1.205,-0.281 -1.747,-0.388 -1.08,-0.212 -1.438,-0.182 -1.074,0.089 0.399,0.316 1.139,1.593 2.222,3.826 1.022,2.151 1.633,3.639 1.833,4.461 0.153,0.635 -0.104,2.557 -0.774,5.768 -0.329,1.61 -0.675,3.15 -1.041,4.62 l -0.389,0.634 c -0.14,0.377 0.112,0.458 0.759,0.247 0.635,-0.211 1.029,0.013 1.181,0.671 0.082,0.339 0.1,0.699 0.055,1.074 l -1.199,4.18 c -0.835,2.832 -1.375,4.379 -1.624,4.638 -0.257,0.258 -0.646,0.276 -1.163,0.052 -0.271,-0.07 -0.423,-0.246 -0.459,-0.528 l 0.071,0.793 c -0.012,0.835 -0.112,1.801 -0.3,2.893 -0.199,1.094 -0.782,2.385 -1.744,3.879 l -1.871,2.188 c -0.353,1.398 -0.576,2.249 -0.67,2.556 -0.035,0 -0.054,0.017 -0.054,0.053 -0.022,0.128 -0.006,0.111 0.054,-0.053 0.211,0.013 1.106,0.817 2.68,2.415 0.918,0.906 1.823,1.841 2.717,2.805 13.293,4.431 21.952,7.259 25.973,8.483 v 6.753 H 13.265 v -2.751 c 1.141,-0.33 2.257,-0.623 3.35,-0.882 0.917,-0.716 3.58,-2.223 7.988,-4.515 2.14,-1.128 4.203,-2.188 6.19,-3.174 0,-0.213 0,-0.453 0,-0.723 0,-1.54 0.617,-2.976 1.851,-4.303 0.612,-0.66 1.223,-1.163 1.835,-1.518 0.528,-0.507 0.911,-1.129 1.146,-1.87 0.188,-0.587 0.382,-0.974 0.582,-1.162 -0.481,-1.164 -1.152,-2.087 -2.009,-2.771 -1.423,-1.152 -2.428,-3.145 -3.017,-5.976 -0.188,-0.895 -0.323,-1.812 -0.405,-2.752 l -0.053,-1.164 c -0.834,0.294 -1.416,0.395 -1.745,0.3 -0.33,-0.094 -0.806,-1.404 -1.429,-3.932 -0.682,-2.74 -0.959,-4.944 -0.829,-6.613 0.118,-1.541 0.641,-2.281 1.569,-2.222 0.458,0.036 0.899,0.224 1.323,0.564 -0.294,-0.929 -0.6,-1.951 -0.917,-3.068 -0.634,-2.221 -0.981,-3.985 -1.04,-5.29 -0.06,-1.246 0.611,-3.134 2.011,-5.661 0.34,-0.611 0.792,-1.41 1.357,-2.398 0.364,-0.693 0.5,-1.087 0.405,-1.182 -0.152,-0.165 -0.152,-0.375 0,-0.634 0.223,-0.364 0.347,-0.611 0.37,-0.741 0.058,-0.435 0.571,-0.893 1.534,-1.376 0.389,-0.199 2.252,-1.216 5.59,-3.049 l 0.353,-0.513 -0.935,-0.582 -0.651,-1.163 -0.512,-1.305 2.909,0.617 -0.652,-0.177 1.165,-0.228 c 0.282,-0.295 0.376,-0.441 0.282,-0.441 l 0.071,-0.635 0.51,0.353 0.441,-0.141 0.424,-0.812 0.212,0.564 c 0.163,0.436 0.34,0.829 0.528,1.182 0.165,0.33 0.312,0.523 0.441,0.582 0.235,0.106 0.423,0.23 0.564,0.37 0.248,0.236 0.459,0.306 0.635,0.212 0.082,-0.046 0.142,-0.117 0.176,-0.212 -0.247,-0.435 -0.494,-0.775 -0.741,-1.021 -0.141,-0.153 -0.27,-0.406 -0.388,-0.759 l -0.106,-0.476 1.235,0.511 1.094,0.952 1.304,0.071 -0.582,-0.792 c 0,-0.293 -0.124,-0.563 -0.37,-0.811 -0.154,-0.153 0.083,-0.077 0.704,0.229 0.307,0.153 0.63,0.324 0.971,0.512 l 0.724,0.069 0.457,0.195 c 0.342,0.188 0.647,0.387 0.917,0.599 0.284,0.212 0.477,0.082 0.583,-0.388 0.082,-0.588 0.135,-0.947 0.157,-1.075 0.024,-0.153 0.213,-0.283 0.565,-0.389 0.175,-0.046 0.346,-0.087 0.511,-0.123 l 1.182,1.975 c 0.141,0.235 0.429,0.647 0.863,1.234 l 0.267,-0.211 c 0.174,-0.165 0.233,-0.335 0.174,-0.513 l -0.739,-2.257 0.265,0.036 c 0.2,0.07 0.382,0.229 0.546,0.476 0.236,0.375 0.794,1.316 1.677,2.821 l 1.004,1.746 0.652,-0.721 z"
   clip-rule="evenodd"
   display="inline"
   inkscape:connector-curvature="0"
   style="fill:#000000;fill-rule:evenodd;display:inline" />
	
		<path
   id="path3379"
   d="m 92.173,78.231 c 0,6.963 -5.646,12.608 -12.608,12.608 H 21.942 C 14.978,90.839 9.333,85.193 9.333,78.231 V 20.609 C 9.333,13.645 14.979,8 21.942,8 h 57.622 c 6.963,0 12.608,5.645 12.608,12.609 v 57.622 z"
   stroke-miterlimit="10"
   clip-rule="evenodd"
   display="inline"
   inkscape:connector-curvature="0"
   style="fill:#000000;fill-rule:evenodd;stroke:#010101;stroke-width:6;stroke-miterlimit:10;display:inline" />
</g><g
     display="none"
     id="Layer_2"
     style="display:none">
</g></g><g
   id="g3610"
   transform="matrix(1.1404145,0,0,1.1404145,476.90844,549.63903)"><path
     inkscape:connector-curvature="0"
     id="path3612"
     d="m 5.6875,27.84375 c -1.5691496,0 -2.78125,1.371922 -2.78125,2.9375 l 0,24.90625 c 0,1.565578 1.2121004,2.9375 2.78125,2.9375 l 43.65625,0 c 1.569149,0 2.78125,-1.371922 2.78125,-2.9375 l 0,-24.90625 c 0,-1.565578 -1.212101,-2.9375 -2.78125,-2.9375 l -43.65625,0 z m 0,1.96875 43.65625,0 c 0.402321,0 0.78125,0.383632 0.78125,0.96875 l 0,24.90625 c 0,0.585118 -0.378929,0.9375 -0.78125,0.9375 l -43.65625,0 c -0.4023214,0 -0.78125,-0.352382 -0.78125,-0.9375 l 0,-24.90625 c 0,-0.585118 0.3789286,-0.96875 0.78125,-0.96875 z"
     style="font-size:medium;font-style:normal;font-variant:normal;font-weight:normal;font-stretch:normal;text-indent:0;text-align:start;text-decoration:none;line-height:normal;letter-spacing:normal;word-spacing:normal;text-transform:none;direction:ltr;block-progression:tb;writing-mode:lr-tb;text-anchor:start;baseline-shift:baseline;color:#000000;fill:#000000;fill-opacity:1;stroke:none;stroke-width:1.99289596;marker:none;visibility:visible;display:inline;overflow:visible;enable-background:accumulate;font-family:Sans;-inkscape-font-specification:Sans" /><path
     id="path3614"
     d="m 22.729477,58.416885 9.563792,0 0,3.4171 -9.563792,0 z"
     style="fill:#000000;stroke:none"
     inkscape:connector-curvature="0" /><path
     inkscape:connector-curvature="0"
     id="path3616"
     d="m 2.6510111,61.495933 a 1.9954639,1.9954639 0 0 0 1.9306181,2.80251 l 44.8401578,0 a 1.9930952,1.9930952 0 0 0 1.85277,-2.80251 l -48.6235459,0 z"
     style="font-size:medium;font-style:normal;font-variant:normal;font-weight:normal;font-stretch:normal;text-indent:0;text-align:start;text-decoration:none;line-height:normal;letter-spacing:normal;word-spacing:normal;text-transform:none;direction:ltr;block-progression:tb;writing-mode:lr-tb;text-anchor:start;baseline-shift:baseline;color:#000000;fill:#000000;fill-opacity:1;stroke:none;stroke-width:8;marker:none;visibility:visible;display:inline;overflow:visible;enable-background:accumulate;font-family:Sans;-inkscape-font-specification:Sans" /><path
     inkscape:connector-curvature="0"
     d="m 59.419581,62.009801 a 0.38959481,0.38959481 0 0 1 0.02297,0 0.38600559,0.38600559 0 0 1 0.02297,0 0.38272919,0.38272919 0 0 1 0.02302,0 0.3797737,0.3797737 0 0 1 0.02296,0 0.37714668,0.37714668 0 0 1 0.02298,0 0.37290498,0.37290498 0 0 1 0.04604,0 0.37005016,0.37005016 0 0 1 0.04603,0 0.36847144,0.36847144 0 0 1 0.06905,0 l 14.737388,0 a 0.36847144,0.36847144 0 0 1 0.138157,0.02292 0.36847144,0.36847144 0 0 1 0.02297,0.02291 0.36847144,0.36847144 0 0 1 0.04602,0 0.36847144,0.36847144 0 0 1 0.09211,0.11509 0.36847144,0.36847144 0 0 1 0.02297,0.02291 0.36847144,0.36847144 0 0 1 0.02297,0.04583 0.36847144,0.36847144 0 0 1 0,0.02291 0.36847144,0.36847144 0 0 1 0.02304,0.04583 0.36847144,0.36847144 0 0 1 0,0.02291 0.36847144,0.36847144 0 0 1 0,0.04583 0.36847144,0.36847144 0 0 1 0,0.06926 0.36847144,0.36847144 0 0 1 0,0.02291 0.36847144,0.36847144 0 0 1 -0.02304,0.04583 0.36847144,0.36847144 0 0 1 -0.02297,0.06926 0.36847144,0.36847144 0 0 1 -0.02297,0.02291 0.36847144,0.36847144 0 0 1 -0.161189,0.115089 0.36847144,0.36847144 0 0 1 -0.138164,0.02291 l -14.737381,0 a 0.39349102,0.39349102 0 0 1 -0.276343,-0.736849 z m 0,-1.473745 a 0.38959481,0.38959481 0 0 1 0.02297,0 0.38600559,0.38600559 0 0 1 0.02297,0 0.38272919,0.38272919 0 0 1 0.02302,0 0.3797737,0.3797737 0 0 1 0.02296,0 0.37714668,0.37714668 0 0 1 0.02298,0 0.37290498,0.37290498 0 0 1 0.04604,0 0.37005016,0.37005016 0 0 1 0.04603,0 0.36847144,0.36847144 0 0 1 0.06905,0 l 14.737388,0 a 0.36847144,0.36847144 0 1 1 0,0.736872 l -14.737388,0 a 0.39349005,0.39349005 0 1 1 -0.276324,-0.736872 z m 0,-1.473699 a 0.38959481,0.38959481 0 0 1 0.02297,0 0.38600559,0.38600559 0 0 1 0.02297,0 0.38272919,0.38272919 0 0 1 0.02302,0 0.3797737,0.3797737 0 0 1 0.02296,0 0.37714668,0.37714668 0 0 1 0.02298,0 0.37290498,0.37290498 0 0 1 0.04604,0 0.37005016,0.37005016 0 0 1 0.04603,0 0.36847144,0.36847144 0 0 1 0.06905,0 l 14.737388,0 a 0.36847144,0.36847144 0 1 1 0,0.736874 l -14.737388,0 a 0.39349023,0.39349023 0 0 1 -0.276324,-0.736874 z m 0,-1.473745 a 0.38959481,0.38959481 0 0 1 0.02297,0 0.38600559,0.38600559 0 0 1 0.02297,0 0.38272919,0.38272919 0 0 1 0.02302,0 0.3797737,0.3797737 0 0 1 0.02296,0 0.37714668,0.37714668 0 0 1 0.02298,0 0.37290498,0.37290498 0 0 1 0.04604,0 0.37005016,0.37005016 0 0 1 0.04603,0 0.36847144,0.36847144 0 0 1 0.06905,0 l 14.737388,0 a 0.36847144,0.36847144 0 1 1 0,0.736874 l -14.737388,0 a 0.39349023,0.39349023 0 0 1 -0.276324,-0.736874 z m 0,-1.473748 a 0.38959481,0.38959481 0 0 1 0.02297,0 0.38600559,0.38600559 0 0 1 0.02297,0 0.38272919,0.38272919 0 0 1 0.02302,0 0.3797737,0.3797737 0 0 1 0.02296,0 0.37714668,0.37714668 0 0 1 0.02298,0 0.37290498,0.37290498 0 0 1 0.04604,0 0.37005016,0.37005016 0 0 1 0.04603,0 0.36847144,0.36847144 0 0 1 0.06905,0 l 14.737388,0 a 0.36847144,0.36847144 0 1 1 0,0.736874 l -14.737388,0 a 0.39349023,0.39349023 0 0 1 -0.276324,-0.736874 z m 0,-1.473745 a 0.38959481,0.38959481 0 0 1 0.02297,0 0.38600559,0.38600559 0 0 1 0.02297,0 0.38272919,0.38272919 0 0 1 0.02302,0 0.3797737,0.3797737 0 0 1 0.02296,0 0.37714668,0.37714668 0 0 1 0.02298,0 0.37290498,0.37290498 0 0 1 0.04604,0 0.37005016,0.37005016 0 0 1 0.04603,0 0.36847144,0.36847144 0 0 1 0.06905,0 l 14.737388,0 a 0.36847144,0.36847144 0 1 1 0,0.736874 l -14.737388,0 a 0.39349023,0.39349023 0 0 1 -0.276324,-0.736874 z m 0,-1.473747 a 0.38959481,0.38959481 0 0 1 0.02297,0 0.38600559,0.38600559 0 0 1 0.02297,0 0.38272919,0.38272919 0 0 1 0.02302,0 0.3797737,0.3797737 0 0 1 0.02296,0 0.37714668,0.37714668 0 0 1 0.02298,0 0.37290498,0.37290498 0 0 1 0.04604,0 0.37005016,0.37005016 0 0 1 0.04603,0 0.36847144,0.36847144 0 0 1 0.06905,0 l 14.737388,0 a 0.36847144,0.36847144 0 1 1 0,0.736873 l -14.737388,0 a 0.39349005,0.39349005 0 0 1 -0.276324,-0.736873 z m 4.651488,-16.579548 c 0.40696,0 0.736866,0.329924 0.736866,0.736873 0,0.406949 -0.329906,0.736874 -0.736866,0.736874 -0.406964,0 -0.736868,-0.329925 -0.736868,-0.736874 0,-0.406949 0.329904,-0.736873 0.736868,-0.736873 z m -2.164553,0 c 0.406959,0 0.736868,0.329924 0.736868,0.736873 0,0.406949 -0.329909,0.736874 -0.736868,0.736874 -0.406964,0 -0.736868,-0.329925 -0.736868,-0.736874 0,-0.406949 0.329904,-0.736873 0.736868,-0.736873 z m 9.34903,-0.09212 a 0.24613225,0.24613225 0 0 1 0.0921,0.483527 c -0.07339,0.05455 -0.153028,0.133524 -0.207235,0.207311 -0.303699,0.412928 -0.205742,0.985785 0.207235,1.289503 0.412979,0.303667 0.985837,0.205767 1.289529,-0.207261 0.303693,-0.412928 0.205723,-0.985785 -0.207249,-1.289553 a 0.23082987,0.23082987 0 0 1 -0.02297,-0.02292 0.23082987,0.23082987 0 0 1 -0.04602,-0.06926 0.23082987,0.23082987 0 0 1 0,-0.184244 0.23082987,0.23082987 0 0 1 0.04602,-0.06926 0.23082987,0.23082987 0 0 1 0.02297,-0.02291 0.23082987,0.23082987 0 0 1 0.115133,-0.04583 0.23082987,0.23082987 0 0 1 0.161195,0.04583 c 0.613955,0.45144 0.750842,1.320293 0.299351,1.934255 -0.451491,0.61396 -1.32033,0.750873 -1.934279,0.299382 -0.613956,-0.45149 -0.750848,-1.320293 -0.299352,-1.934255 0.08131,-0.110606 0.166208,-0.217375 0.276322,-0.299382 a 0.23282653,0.23282653 0 0 1 0.04602,-0.02292 0.23282653,0.23282653 0 0 1 0.02297,-0.02291 0.23707914,0.23707914 0 0 1 0.02304,-0.02291 0.24205918,0.24205918 0 0 1 0.04602,-0.02292 0.24396841,0.24396841 0 0 1 0.06905,-0.02291 z m 0.598703,-0.64475 a 0.23082987,0.23082987 0 0 1 0.161194,0.04583 0.23082987,0.23082987 0 0 1 0.02297,0.02292 0.23082987,0.23082987 0 0 1 0.02304,0.02291 0.23082987,0.23082987 0 0 1 0.04602,0.161175 l 0,1.381625 a 0.23082987,0.23082987 0 0 1 -0.04602,0.138158 0.23082987,0.23082987 0 0 1 -0.02304,0.02291 0.23082987,0.23082987 0 0 1 -0.06905,0.04583 0.23082987,0.23082987 0 0 1 -0.230268,-0.02291 0.23082987,0.23082987 0 0 1 -0.02305,-0.02291 0.23082987,0.23082987 0 0 1 -0.02297,-0.02291 0.23082987,0.23082987 0 0 1 -0.04602,-0.138157 l 0,-1.381626 a 0.23082987,0.23082987 0 0 1 0.04602,-0.138158 0.23082987,0.23082987 0 0 1 0.02297,-0.02291 0.23082987,0.23082987 0 0 1 0.02305,-0.02292 0.23082987,0.23082987 0 0 1 0.09211,-0.04583 0.23082987,0.23082987 0 0 1 0.02304,-0.02292 z m -11.42147,-2.947493 13.263646,0 0,2.210619 -13.263646,0 0,-2.210619 z m 0,-2.947444 13.263646,0 0,2.210619 -13.263646,0 0,-2.210619 z m 0,-2.947493 13.263646,0 0,2.210619 -13.263646,0 0,-2.210619 z m 0,-2.947493 13.263646,0 0,2.210619 -13.263646,0 0,-2.210619 z m -2.21061,-3.31588 0,43.843709 18.053294,0 0,-43.843709 -18.053294,0 z"
     style="fill:#000000;stroke:none"
     id="path3618" /></g><text
   xml:space="preserve"
   style="font-size:20px;font-style:normal;font-variant:normal;font-weight:normal;font-stretch:normal;text-align:center;line-height:125%;letter-spacing:0px;word-spacing:0px;text-anchor:middle;fill:#000000;fill-opacity:1;stroke:none;font-family:PT Sans;-inkscape-font-specification:PT Sans"
   x="426.38834"
   y="650.62799"
   id="text3628"
   sodipodi:linespacing="125%"
   inkscape:export-filename="/Users/massimomenichinelli/Documents/Github/Design-with-the-user_Slides/images/distributed_vcs.png"
   inkscape:export-xdpi="90"
   inkscape:export-ydpi="90"><tspan
     sodipodi:role="line"
     id="tspan3630"
     x="426.38834"
     y="650.62799">Bob</tspan></text>









<g
   id="g5997"
   transform="matrix(0.5,0,0,0.5,516.64248,573.50897)"
   inkscape:export-filename="/Users/massimomenichinelli/Documents/Github/Design-with-the-user_Slides/images/distributed_vcs.png"
   inkscape:export-xdpi="90"
   inkscape:export-ydpi="90"><g
     transform="translate(124.57627,-0.42372836)"
     id="g5999"><path
       inkscape:connector-curvature="0"
       d="M 50,0 C 22.386,0 0,3.214 0,7.179 v 21.886 c 0,3.964 22.386,7.179 50,7.179 27.612,0 50,-3.215 50,-7.179 V 7.179 C 100,3.214 77.612,0 50,0 z"
       id="path6001" /><g
       id="g6003">
	<path
   inkscape:connector-curvature="0"
   d="M 50,46.24 C 22.386,46.24 0,43.025 0,39.061 v 21.885 c 0,3.964 22.386,7.18 50,7.18 27.612,0 50,-3.216 50,-7.18 V 39.061 c 0,3.964 -22.388,7.179 -50,7.179 z"
   id="path6005" />
</g><g
       id="g6007">
	<path
   inkscape:connector-curvature="0"
   d="M 50,78.116 C 22.386,78.116 0,74.9 0,70.935 V 92.821 C 0,96.787 22.386,100 50,100 c 27.612,0 50,-3.213 50,-7.179 V 70.936 c 0,3.964 -22.388,7.18 -50,7.18 z"
   id="path6009" />
</g></g></g><text
   xml:space="preserve"
   style="font-size:20px;font-style:normal;font-variant:normal;font-weight:normal;font-stretch:normal;text-align:center;line-height:125%;letter-spacing:0px;word-spacing:0px;writing-mode:lr-tb;text-anchor:middle;fill:#000000;fill-opacity:1;stroke:none;font-family:PT Sans;-inkscape-font-specification:PT Sans"
   x="603.76935"
   y="650.62799"
   id="text6073"
   sodipodi:linespacing="125%"
   inkscape:export-filename="/Users/massimomenichinelli/Documents/Github/Design-with-the-user_Slides/images/distributed_vcs.png"
   inkscape:export-xdpi="90"
   inkscape:export-ydpi="90"><tspan
     y="650.62799"
     x="603.76935"
     id="tspan6075"
     sodipodi:role="line">Local Version</tspan></text>









</g><g
   transform="translate(-35.749336,69.512598)"
   id="g4371"><path
   d="m 864.18676,452.13466 c -6.00829,0 -10.88845,8.63794 -10.88845,19.28858 0,2.92799 -0.35978,5.69699 -1.0187,8.18303 0,0 0.82979,0.64168 2.45491,1.38611 1.40013,0.64181 4.38864,1.52411 6.96393,2.004 0,0.66801 0,0.62565 0,1.05211 -7.0338,1.29272 -11.78865,4.94883 -14.99666,6.37942 -6.63514,2.95899 -6.68003,6.21243 -6.68003,6.21243 l 0,5.49432 53.44021,0 0,-5.49432 c 0,0 -0.0198,-3.25237 -6.68002,-6.21243 -3.22726,-1.43433 -8.02205,-5.12692 -15.11356,-6.39612 0,-0.49646 -0.0167,-0.50515 -0.0167,-0.95191 2.64956,-0.48577 5.67989,-1.4684 7.11422,-2.1209 1.61443,-0.73267 2.45491,-1.35271 2.45491,-1.35271 -0.65731,-2.48604 -1.0187,-5.25504 -1.0187,-8.18303 0,-10.6501 -4.87963,-19.28858 -10.88844,-19.28858 -0.8839,0 -1.7499,0.19733 -2.57181,0.5511 -0.82405,-0.35377 -1.67068,-0.5511 -2.55511,-0.5511 z"
   id="path3585"
   inkscape:connector-curvature="0" /><g
   transform="matrix(1.1404145,0,0,1.1404145,916.89262,428.47659)"
   id="g3600"><path
     style="font-size:medium;font-style:normal;font-variant:normal;font-weight:normal;font-stretch:normal;text-indent:0;text-align:start;text-decoration:none;line-height:normal;letter-spacing:normal;word-spacing:normal;text-transform:none;direction:ltr;block-progression:tb;writing-mode:lr-tb;text-anchor:start;baseline-shift:baseline;color:#000000;fill:#000000;fill-opacity:1;stroke:none;stroke-width:1.99289596;marker:none;visibility:visible;display:inline;overflow:visible;enable-background:accumulate;font-family:Sans;-inkscape-font-specification:Sans"
     d="m 5.6875,27.84375 c -1.5691496,0 -2.78125,1.371922 -2.78125,2.9375 l 0,24.90625 c 0,1.565578 1.2121004,2.9375 2.78125,2.9375 l 43.65625,0 c 1.569149,0 2.78125,-1.371922 2.78125,-2.9375 l 0,-24.90625 c 0,-1.565578 -1.212101,-2.9375 -2.78125,-2.9375 l -43.65625,0 z m 0,1.96875 43.65625,0 c 0.402321,0 0.78125,0.383632 0.78125,0.96875 l 0,24.90625 c 0,0.585118 -0.378929,0.9375 -0.78125,0.9375 l -43.65625,0 c -0.4023214,0 -0.78125,-0.352382 -0.78125,-0.9375 l 0,-24.90625 c 0,-0.585118 0.3789286,-0.96875 0.78125,-0.96875 z"
     id="path3602"
     inkscape:connector-curvature="0" /><path
     inkscape:connector-curvature="0"
     style="fill:#000000;stroke:none"
     d="m 22.729477,58.416885 9.563792,0 0,3.4171 -9.563792,0 z"
     id="path3604" /><path
     style="font-size:medium;font-style:normal;font-variant:normal;font-weight:normal;font-stretch:normal;text-indent:0;text-align:start;text-decoration:none;line-height:normal;letter-spacing:normal;word-spacing:normal;text-transform:none;direction:ltr;block-progression:tb;writing-mode:lr-tb;text-anchor:start;baseline-shift:baseline;color:#000000;fill:#000000;fill-opacity:1;stroke:none;stroke-width:8;marker:none;visibility:visible;display:inline;overflow:visible;enable-background:accumulate;font-family:Sans;-inkscape-font-specification:Sans"
     d="m 2.6510111,61.495933 a 1.9954639,1.9954639 0 0 0 1.9306181,2.80251 l 44.8401578,0 a 1.9930952,1.9930952 0 0 0 1.85277,-2.80251 l -48.6235459,0 z"
     id="path3606"
     inkscape:connector-curvature="0" /><path
     id="path3608"
     style="fill:#000000;stroke:none"
     d="m 59.419581,62.009801 a 0.38959481,0.38959481 0 0 1 0.02297,0 0.38600559,0.38600559 0 0 1 0.02297,0 0.38272919,0.38272919 0 0 1 0.02302,0 0.3797737,0.3797737 0 0 1 0.02296,0 0.37714668,0.37714668 0 0 1 0.02298,0 0.37290498,0.37290498 0 0 1 0.04604,0 0.37005016,0.37005016 0 0 1 0.04603,0 0.36847144,0.36847144 0 0 1 0.06905,0 l 14.737388,0 a 0.36847144,0.36847144 0 0 1 0.138157,0.02292 0.36847144,0.36847144 0 0 1 0.02297,0.02291 0.36847144,0.36847144 0 0 1 0.04602,0 0.36847144,0.36847144 0 0 1 0.09211,0.11509 0.36847144,0.36847144 0 0 1 0.02297,0.02291 0.36847144,0.36847144 0 0 1 0.02297,0.04583 0.36847144,0.36847144 0 0 1 0,0.02291 0.36847144,0.36847144 0 0 1 0.02304,0.04583 0.36847144,0.36847144 0 0 1 0,0.02291 0.36847144,0.36847144 0 0 1 0,0.04583 0.36847144,0.36847144 0 0 1 0,0.06926 0.36847144,0.36847144 0 0 1 0,0.02291 0.36847144,0.36847144 0 0 1 -0.02304,0.04583 0.36847144,0.36847144 0 0 1 -0.02297,0.06926 0.36847144,0.36847144 0 0 1 -0.02297,0.02291 0.36847144,0.36847144 0 0 1 -0.161189,0.115089 0.36847144,0.36847144 0 0 1 -0.138164,0.02291 l -14.737381,0 a 0.39349102,0.39349102 0 0 1 -0.276343,-0.736849 z m 0,-1.473745 a 0.38959481,0.38959481 0 0 1 0.02297,0 0.38600559,0.38600559 0 0 1 0.02297,0 0.38272919,0.38272919 0 0 1 0.02302,0 0.3797737,0.3797737 0 0 1 0.02296,0 0.37714668,0.37714668 0 0 1 0.02298,0 0.37290498,0.37290498 0 0 1 0.04604,0 0.37005016,0.37005016 0 0 1 0.04603,0 0.36847144,0.36847144 0 0 1 0.06905,0 l 14.737388,0 a 0.36847144,0.36847144 0 1 1 0,0.736872 l -14.737388,0 a 0.39349005,0.39349005 0 1 1 -0.276324,-0.736872 z m 0,-1.473699 a 0.38959481,0.38959481 0 0 1 0.02297,0 0.38600559,0.38600559 0 0 1 0.02297,0 0.38272919,0.38272919 0 0 1 0.02302,0 0.3797737,0.3797737 0 0 1 0.02296,0 0.37714668,0.37714668 0 0 1 0.02298,0 0.37290498,0.37290498 0 0 1 0.04604,0 0.37005016,0.37005016 0 0 1 0.04603,0 0.36847144,0.36847144 0 0 1 0.06905,0 l 14.737388,0 a 0.36847144,0.36847144 0 1 1 0,0.736874 l -14.737388,0 a 0.39349023,0.39349023 0 0 1 -0.276324,-0.736874 z m 0,-1.473745 a 0.38959481,0.38959481 0 0 1 0.02297,0 0.38600559,0.38600559 0 0 1 0.02297,0 0.38272919,0.38272919 0 0 1 0.02302,0 0.3797737,0.3797737 0 0 1 0.02296,0 0.37714668,0.37714668 0 0 1 0.02298,0 0.37290498,0.37290498 0 0 1 0.04604,0 0.37005016,0.37005016 0 0 1 0.04603,0 0.36847144,0.36847144 0 0 1 0.06905,0 l 14.737388,0 a 0.36847144,0.36847144 0 1 1 0,0.736874 l -14.737388,0 a 0.39349023,0.39349023 0 0 1 -0.276324,-0.736874 z m 0,-1.473748 a 0.38959481,0.38959481 0 0 1 0.02297,0 0.38600559,0.38600559 0 0 1 0.02297,0 0.38272919,0.38272919 0 0 1 0.02302,0 0.3797737,0.3797737 0 0 1 0.02296,0 0.37714668,0.37714668 0 0 1 0.02298,0 0.37290498,0.37290498 0 0 1 0.04604,0 0.37005016,0.37005016 0 0 1 0.04603,0 0.36847144,0.36847144 0 0 1 0.06905,0 l 14.737388,0 a 0.36847144,0.36847144 0 1 1 0,0.736874 l -14.737388,0 a 0.39349023,0.39349023 0 0 1 -0.276324,-0.736874 z m 0,-1.473745 a 0.38959481,0.38959481 0 0 1 0.02297,0 0.38600559,0.38600559 0 0 1 0.02297,0 0.38272919,0.38272919 0 0 1 0.02302,0 0.3797737,0.3797737 0 0 1 0.02296,0 0.37714668,0.37714668 0 0 1 0.02298,0 0.37290498,0.37290498 0 0 1 0.04604,0 0.37005016,0.37005016 0 0 1 0.04603,0 0.36847144,0.36847144 0 0 1 0.06905,0 l 14.737388,0 a 0.36847144,0.36847144 0 1 1 0,0.736874 l -14.737388,0 a 0.39349023,0.39349023 0 0 1 -0.276324,-0.736874 z m 0,-1.473747 a 0.38959481,0.38959481 0 0 1 0.02297,0 0.38600559,0.38600559 0 0 1 0.02297,0 0.38272919,0.38272919 0 0 1 0.02302,0 0.3797737,0.3797737 0 0 1 0.02296,0 0.37714668,0.37714668 0 0 1 0.02298,0 0.37290498,0.37290498 0 0 1 0.04604,0 0.37005016,0.37005016 0 0 1 0.04603,0 0.36847144,0.36847144 0 0 1 0.06905,0 l 14.737388,0 a 0.36847144,0.36847144 0 1 1 0,0.736873 l -14.737388,0 a 0.39349005,0.39349005 0 0 1 -0.276324,-0.736873 z m 4.651488,-16.579548 c 0.40696,0 0.736866,0.329924 0.736866,0.736873 0,0.406949 -0.329906,0.736874 -0.736866,0.736874 -0.406964,0 -0.736868,-0.329925 -0.736868,-0.736874 0,-0.406949 0.329904,-0.736873 0.736868,-0.736873 z m -2.164553,0 c 0.406959,0 0.736868,0.329924 0.736868,0.736873 0,0.406949 -0.329909,0.736874 -0.736868,0.736874 -0.406964,0 -0.736868,-0.329925 -0.736868,-0.736874 0,-0.406949 0.329904,-0.736873 0.736868,-0.736873 z m 9.34903,-0.09212 a 0.24613225,0.24613225 0 0 1 0.0921,0.483527 c -0.07339,0.05455 -0.153028,0.133524 -0.207235,0.207311 -0.303699,0.412928 -0.205742,0.985785 0.207235,1.289503 0.412979,0.303667 0.985837,0.205767 1.289529,-0.207261 0.303693,-0.412928 0.205723,-0.985785 -0.207249,-1.289553 a 0.23082987,0.23082987 0 0 1 -0.02297,-0.02292 0.23082987,0.23082987 0 0 1 -0.04602,-0.06926 0.23082987,0.23082987 0 0 1 0,-0.184244 0.23082987,0.23082987 0 0 1 0.04602,-0.06926 0.23082987,0.23082987 0 0 1 0.02297,-0.02291 0.23082987,0.23082987 0 0 1 0.115133,-0.04583 0.23082987,0.23082987 0 0 1 0.161195,0.04583 c 0.613955,0.45144 0.750842,1.320293 0.299351,1.934255 -0.451491,0.61396 -1.32033,0.750873 -1.934279,0.299382 -0.613956,-0.45149 -0.750848,-1.320293 -0.299352,-1.934255 0.08131,-0.110606 0.166208,-0.217375 0.276322,-0.299382 a 0.23282653,0.23282653 0 0 1 0.04602,-0.02292 0.23282653,0.23282653 0 0 1 0.02297,-0.02291 0.23707914,0.23707914 0 0 1 0.02304,-0.02291 0.24205918,0.24205918 0 0 1 0.04602,-0.02292 0.24396841,0.24396841 0 0 1 0.06905,-0.02291 z m 0.598703,-0.64475 a 0.23082987,0.23082987 0 0 1 0.161194,0.04583 0.23082987,0.23082987 0 0 1 0.02297,0.02292 0.23082987,0.23082987 0 0 1 0.02304,0.02291 0.23082987,0.23082987 0 0 1 0.04602,0.161175 l 0,1.381625 a 0.23082987,0.23082987 0 0 1 -0.04602,0.138158 0.23082987,0.23082987 0 0 1 -0.02304,0.02291 0.23082987,0.23082987 0 0 1 -0.06905,0.04583 0.23082987,0.23082987 0 0 1 -0.230268,-0.02291 0.23082987,0.23082987 0 0 1 -0.02305,-0.02291 0.23082987,0.23082987 0 0 1 -0.02297,-0.02291 0.23082987,0.23082987 0 0 1 -0.04602,-0.138157 l 0,-1.381626 a 0.23082987,0.23082987 0 0 1 0.04602,-0.138158 0.23082987,0.23082987 0 0 1 0.02297,-0.02291 0.23082987,0.23082987 0 0 1 0.02305,-0.02292 0.23082987,0.23082987 0 0 1 0.09211,-0.04583 0.23082987,0.23082987 0 0 1 0.02304,-0.02292 z m -11.42147,-2.947493 13.263646,0 0,2.210619 -13.263646,0 0,-2.210619 z m 0,-2.947444 13.263646,0 0,2.210619 -13.263646,0 0,-2.210619 z m 0,-2.947493 13.263646,0 0,2.210619 -13.263646,0 0,-2.210619 z m 0,-2.947493 13.263646,0 0,2.210619 -13.263646,0 0,-2.210619 z m -2.21061,-3.31588 0,43.843709 18.053294,0 0,-43.843709 -18.053294,0 z"
     inkscape:connector-curvature="0" /></g><text
   sodipodi:linespacing="125%"
   id="text3632"
   y="529.46552"
   x="867.14996"
   style="font-size:20px;font-style:normal;font-variant:normal;font-weight:normal;font-stretch:normal;text-align:center;line-height:125%;letter-spacing:0px;word-spacing:0px;text-anchor:middle;fill:#000000;fill-opacity:1;stroke:none;font-family:PT Sans;-inkscape-font-specification:PT Sans"
   xml:space="preserve"
   inkscape:export-filename="/Users/massimomenichinelli/Documents/Github/Design-with-the-user_Slides/images/distributed_vcs.png"
   inkscape:export-xdpi="90"
   inkscape:export-ydpi="90"><tspan
     y="529.46552"
     x="867.14996"
     id="tspan3634"
     sodipodi:role="line">Alice</tspan></text>









<g
   transform="matrix(0.5,0,0,0.5,953.23188,452.34653)"
   id="g6011"
   inkscape:export-filename="/Users/massimomenichinelli/Documents/Github/Design-with-the-user_Slides/images/distributed_vcs.png"
   inkscape:export-xdpi="90"
   inkscape:export-ydpi="90"><g
     id="g6013"
     transform="translate(124.57627,-0.42372836)"><path
       id="path6015"
       d="M 50,0 C 22.386,0 0,3.214 0,7.179 v 21.886 c 0,3.964 22.386,7.179 50,7.179 27.612,0 50,-3.215 50,-7.179 V 7.179 C 100,3.214 77.612,0 50,0 z"
       inkscape:connector-curvature="0" /><g
       id="g6017">
	<path
   id="path6019"
   d="M 50,46.24 C 22.386,46.24 0,43.025 0,39.061 v 21.885 c 0,3.964 22.386,7.18 50,7.18 27.612,0 50,-3.216 50,-7.18 V 39.061 c 0,3.964 -22.388,7.179 -50,7.179 z"
   inkscape:connector-curvature="0" />
</g><g
       id="g6021">
	<path
   id="path6023"
   d="M 50,78.116 C 22.386,78.116 0,74.9 0,70.935 V 92.821 C 0,96.787 22.386,100 50,100 c 27.612,0 50,-3.213 50,-7.179 V 70.936 c 0,3.964 -22.388,7.18 -50,7.18 z"
   inkscape:connector-curvature="0" />
</g></g></g><text
   sodipodi:linespacing="125%"
   id="text6077"
   y="529.46552"
   x="1040.3588"
   style="font-size:20px;font-style:normal;font-variant:normal;font-weight:normal;font-stretch:normal;text-align:center;line-height:125%;letter-spacing:0px;word-spacing:0px;writing-mode:lr-tb;text-anchor:middle;fill:#000000;fill-opacity:1;stroke:none;font-family:PT Sans;-inkscape-font-specification:PT Sans"
   xml:space="preserve"
   inkscape:export-filename="/Users/massimomenichinelli/Documents/Github/Design-with-the-user_Slides/images/distributed_vcs.png"
   inkscape:export-xdpi="90"
   inkscape:export-ydpi="90"><tspan
     sodipodi:role="line"
     id="tspan6079"
     x="1040.3588"
     y="529.46552">Local Version</tspan></text>









</g><g
   inkscape:export-ydpi="90"
   inkscape:export-xdpi="90"
   inkscape:export-filename="/Users/massimomenichinelli/Documents/Github/Design-with-the-user_Slides/images/distributed_vcs.png"
   id="g6081"
   transform="matrix(0.5,0,0,0.5,324.84903,-24.829454)"><g
     transform="translate(124.57627,-0.42372836)"
     id="g6083"><path
       inkscape:connector-curvature="0"
       d="M 50,0 C 22.386,0 0,3.214 0,7.179 v 21.886 c 0,3.964 22.386,7.179 50,7.179 27.612,0 50,-3.215 50,-7.179 V 7.179 C 100,3.214 77.612,0 50,0 z"
       id="path6085" /><g
       id="g6087">
	<path
   inkscape:connector-curvature="0"
   d="M 50,46.24 C 22.386,46.24 0,43.025 0,39.061 v 21.885 c 0,3.964 22.386,7.18 50,7.18 27.612,0 50,-3.216 50,-7.18 V 39.061 c 0,3.964 -22.388,7.179 -50,7.179 z"
   id="path6089" />
</g><g
       id="g6091">
	<path
   inkscape:connector-curvature="0"
   d="M 50,78.116 C 22.386,78.116 0,74.9 0,70.935 V 92.821 C 0,96.787 22.386,100 50,100 c 27.612,0 50,-3.213 50,-7.179 V 70.936 c 0,3.964 -22.388,7.18 -50,7.18 z"
   id="path6093" />
</g></g></g><text
   inkscape:export-ydpi="90"
   inkscape:export-xdpi="90"
   inkscape:export-filename="/Users/massimomenichinelli/Documents/Github/Design-with-the-user_Slides/images/distributed_vcs.png"
   xml:space="preserve"
   style="font-size:20px;font-style:normal;font-variant:normal;font-weight:normal;font-stretch:normal;text-align:center;line-height:125%;letter-spacing:0px;word-spacing:0px;writing-mode:lr-tb;text-anchor:middle;fill:#000000;fill-opacity:1;stroke:none;font-family:PT Sans;-inkscape-font-specification:PT Sans"
   x="411.67511"
   y="50.648201"
   id="text6095"
   sodipodi:linespacing="125%"><tspan
     y="50.648201"
     x="411.67511"
     id="tspan6099"
     sodipodi:role="line">Remote Repository</tspan></text>







<g
   inkscape:export-ydpi="90"
   inkscape:export-xdpi="90"
   inkscape:export-filename="/Users/massimomenichinelli/Documents/Github/Design-with-the-user_Slides/images/distributed_vcs.png"
   transform="matrix(0.5,0,0,0.5,832.98137,36.199172)"
   id="g6101"><g
     id="g6103"
     transform="translate(124.57627,-0.42372836)"><path
       id="path6105"
       d="M 50,0 C 22.386,0 0,3.214 0,7.179 v 21.886 c 0,3.964 22.386,7.179 50,7.179 27.612,0 50,-3.215 50,-7.179 V 7.179 C 100,3.214 77.612,0 50,0 z"
       inkscape:connector-curvature="0" /><g
       id="g6107">
	<path
   id="path6109"
   d="M 50,46.24 C 22.386,46.24 0,43.025 0,39.061 v 21.885 c 0,3.964 22.386,7.18 50,7.18 27.612,0 50,-3.216 50,-7.18 V 39.061 c 0,3.964 -22.388,7.179 -50,7.179 z"
   inkscape:connector-curvature="0" />
</g><g
       id="g6111">
	<path
   id="path6113"
   d="M 50,78.116 C 22.386,78.116 0,74.9 0,70.935 V 92.821 C 0,96.787 22.386,100 50,100 c 27.612,0 50,-3.213 50,-7.179 V 70.936 c 0,3.964 -22.388,7.18 -50,7.18 z"
   inkscape:connector-curvature="0" />
</g></g></g><text
   inkscape:export-ydpi="90"
   inkscape:export-xdpi="90"
   inkscape:export-filename="/Users/massimomenichinelli/Documents/Github/Design-with-the-user_Slides/images/distributed_vcs.png"
   sodipodi:linespacing="125%"
   id="text6115"
   y="111.67683"
   x="919.80743"
   style="font-size:20px;font-style:normal;font-variant:normal;font-weight:normal;font-stretch:normal;text-align:center;line-height:125%;letter-spacing:0px;word-spacing:0px;writing-mode:lr-tb;text-anchor:middle;fill:#000000;fill-opacity:1;stroke:none;font-family:PT Sans;-inkscape-font-specification:PT Sans"
   xml:space="preserve"><tspan
     y="111.67683"
     x="919.80743"
     sodipodi:role="line"
     id="tspan6117">Remote Repository</tspan></text>







<path
   inkscape:export-ydpi="90"
   inkscape:export-xdpi="90"
   inkscape:export-filename="/Users/massimomenichinelli/Documents/Github/Design-with-the-user_Slides/images/distributed_vcs.png"
   style="fill:none;stroke:#000000;stroke-width:4;stroke-linecap:butt;stroke-linejoin:miter;stroke-miterlimit:4;stroke-opacity:1;stroke-dasharray:4.00000007, 4.00000007;stroke-dashoffset:0;marker-start:url(#Arrow1Sstart);marker-end:url(#Arrow1Send)"
   d="M 955.79334,503.06739 924.55501,129.55188"
   id="path6119"
   inkscape:connector-curvature="0" />










<path
   style="fill:none;stroke:#000000;stroke-width:4;stroke-linecap:butt;stroke-linejoin:miter;stroke-miterlimit:4;stroke-opacity:1;stroke-dasharray:4.00000007, 4.00000007;stroke-dashoffset:0;marker-start:url(#Arrow1Sstart);marker-end:url(#Arrow1Send)"
   d="M 464.4962,637.19926 412.8047,71.201219"
   id="path7200"
   inkscape:connector-curvature="0"
   inkscape:export-filename="/Users/massimomenichinelli/Documents/Github/Design-with-the-user_Slides/images/distributed_vcs.png"
   inkscape:export-xdpi="90"
   inkscape:export-ydpi="90" /><g
   style="display:inline"
   inkscape:label="red flows"
   id="layer3"
   inkscape:groupmode="layer"><path
     transform="translate(0,-2.3563764e-6)"
     inkscape:connector-curvature="0"
     id="path10099"
     d="m 989.06495,648.76292 c 210.52385,0 208.53775,-486.58818 -81.42904,-486.58818"
     style="fill:none;stroke:#da5c4b;stroke-width:4;stroke-linecap:butt;stroke-linejoin:miter;stroke-miterlimit:4;stroke-opacity:1;stroke-dasharray:4.00000007, 4.00000007;stroke-dashoffset:0;marker-end:url(#Arrow1Sendoa)" /><g
     transform="translate(-114.50225,-417.07559)"
     id="g7192"><rect
       style="fill:#da5c4b;fill-opacity:1;stroke:none"
       id="rect7194"
       width="93.249496"
       height="24.2605"
       x="920.88458"
       y="567.63989" /><text
       inkscape:export-ydpi="90"
       inkscape:export-xdpi="90"
       inkscape:export-filename="/Users/massimomenichinelli/Documents/Github/Design-with-the-user_Slides/images/distributed_vcs.png"
       xml:space="preserve"
       style="font-size:14.23006725px;font-style:normal;font-variant:normal;font-weight:bold;font-stretch:normal;text-align:center;line-height:125%;letter-spacing:0px;word-spacing:0px;writing-mode:lr-tb;text-anchor:middle;fill:#ffffff;fill-opacity:1;stroke:none;font-family:PT Sans;-inkscape-font-specification:PT Sans Bold"
       x="967.21448"
       y="583.34192"
       id="text7196"
       sodipodi:linespacing="125%"><tspan
         sodipodi:role="line"
         id="tspan7198"
         x="967.21448"
         y="583.34192">+ Orange</tspan></text>
</g><g
     transform="translate(7.1432465e-7,4.7696062e-6)"
     id="g14398"><rect
       y="637.15247"
       x="885.13525"
       height="24.2605"
       width="93.249496"
       id="rect7178"
       style="fill:#da5c4b;fill-opacity:1;stroke:none" /><text
       sodipodi:linespacing="125%"
       id="text7180"
       y="652.85449"
       x="931.46515"
       style="font-size:14.23006725px;font-style:normal;font-variant:normal;font-weight:bold;font-stretch:normal;text-align:center;line-height:125%;letter-spacing:0px;word-spacing:0px;writing-mode:lr-tb;text-anchor:middle;fill:#ffffff;fill-opacity:1;stroke:none;font-family:PT Sans;-inkscape-font-specification:PT Sans Bold"
       xml:space="preserve"
       inkscape:export-filename="/Users/massimomenichinelli/Documents/Github/Design-with-the-user_Slides/images/distributed_vcs.png"
       inkscape:export-xdpi="90"
       inkscape:export-ydpi="90"><tspan
         y="652.85449"
         x="931.46515"
         id="tspan7182"
         sodipodi:role="line">+ Orange</tspan></text>
</g></g><g
   style="display:inline"
   inkscape:label="brown flows"
   id="layer4"
   inkscape:groupmode="layer"><path
     style="fill:none;stroke:#da9e4b;stroke-width:4;stroke-linecap:butt;stroke-linejoin:miter;stroke-miterlimit:4;stroke-opacity:1;stroke-dasharray:4.00000014, 4.00000014;stroke-dashoffset:0;marker-start:none;marker-end:url(#Arrow1Sendom)"
     d="M 552.12863,767.92738 C 736.83353,765.94131 774.56894,468.03017 677.2513,468.03017"
     id="path10679"
     inkscape:connector-curvature="0" /><path
     sodipodi:nodetypes="cc"
     inkscape:connector-curvature="0"
     id="path11665"
     d="M 553.22351,766.8325 C 735.64556,762.01721 882.14867,39.722191 607.28713,39.722191"
     style="fill:none;stroke:#da9e4b;stroke-width:4;stroke-linecap:butt;stroke-linejoin:miter;stroke-miterlimit:4;stroke-opacity:1;stroke-dasharray:4.00000014, 4.00000014;stroke-dashoffset:0;marker-start:none;marker-end:url(#Arrow1Sendom)" /><path
     transform="translate(0,-2.3563764e-6)"
     inkscape:connector-curvature="0"
     id="path11786"
     d="m 566.03115,62.871031 c 0,87.387269 -55.61008,508.434999 -363.45158,508.434999"
     style="fill:none;stroke:#da9e4b;stroke-width:4;stroke-linecap:butt;stroke-linejoin:miter;stroke-miterlimit:4;stroke-opacity:1;stroke-dasharray:4.00000007, 4.00000007;stroke-dashoffset:0;marker-start:none;marker-end:url(#Arrow1Sendf)" /><g
     transform="translate(2.039063e-8,-1.0326256e-5)"
     id="g14598"><rect
       style="fill:#da9e4b;fill-opacity:1;stroke:none"
       id="rect4424"
       width="93.249496"
       height="24.2605"
       x="447.39322"
       y="758.04706" /><text
       inkscape:export-ydpi="90"
       inkscape:export-xdpi="90"
       inkscape:export-filename="/Users/massimomenichinelli/Documents/Github/Design-with-the-user_Slides/images/distributed_vcs.png"
       xml:space="preserve"
       style="font-size:14.23006725px;font-style:normal;font-variant:normal;font-weight:bold;font-stretch:normal;text-align:center;line-height:125%;letter-spacing:0px;word-spacing:0px;writing-mode:lr-tb;text-anchor:middle;fill:#ffffff;fill-opacity:1;stroke:none;font-family:PT Sans;-inkscape-font-specification:PT Sans Bold"
       x="493.95972"
       y="773.77045"
       id="text4426"
       sodipodi:linespacing="125%"><tspan
         sodipodi:role="line"
         id="tspan4433"
         x="493.95972"
         y="773.77045">+ Flour</tspan></text>
</g><g
     transform="translate(90.686575,-228.66851)"
     id="g4448"><rect
       style="fill:#da9e4b;fill-opacity:1;stroke:none"
       id="rect4450"
       width="93.249496"
       height="24.2605"
       x="483.14255"
       y="688.53448" /><text
       inkscape:export-ydpi="90"
       inkscape:export-xdpi="90"
       inkscape:export-filename="/Users/massimomenichinelli/Documents/Github/Design-with-the-user_Slides/images/distributed_vcs.png"
       xml:space="preserve"
       style="font-size:14.23006725px;font-style:normal;font-variant:normal;font-weight:bold;font-stretch:normal;text-align:center;line-height:125%;letter-spacing:0px;word-spacing:0px;writing-mode:lr-tb;text-anchor:middle;fill:#ffffff;fill-opacity:1;stroke:none;font-family:PT Sans;-inkscape-font-specification:PT Sans Bold"
       x="529.70905"
       y="704.25787"
       id="text4452"
       sodipodi:linespacing="125%"><tspan
         y="704.25787"
         x="529.70905"
         sodipodi:role="line"
         id="tspan4454">+ Flour</tspan></text>
</g><g
     transform="translate(21.60508,-659.98805)"
     id="g4464"><rect
       style="fill:#da9e4b;fill-opacity:1;stroke:none"
       id="rect4466"
       width="93.249496"
       height="24.2605"
       x="483.14255"
       y="688.53448" /><text
       inkscape:export-ydpi="90"
       inkscape:export-xdpi="90"
       inkscape:export-filename="/Users/massimomenichinelli/Documents/Github/Design-with-the-user_Slides/images/distributed_vcs.png"
       xml:space="preserve"
       style="font-size:14.23006725px;font-style:normal;font-variant:normal;font-weight:bold;font-stretch:normal;text-align:center;line-height:125%;letter-spacing:0px;word-spacing:0px;writing-mode:lr-tb;text-anchor:middle;fill:#ffffff;fill-opacity:1;stroke:none;font-family:PT Sans;-inkscape-font-specification:PT Sans Bold"
       x="529.70905"
       y="704.25787"
       id="text4468"
       sodipodi:linespacing="125%"><tspan
         y="704.25787"
         x="529.70905"
         sodipodi:role="line"
         id="tspan4470">+ Flour</tspan></text>
</g><g
     id="g10671"
     transform="translate(-384.59415,-131.0809)"><rect
       y="688.53448"
       x="483.14255"
       height="24.2605"
       width="93.249496"
       id="rect10673"
       style="fill:#da9e4b;fill-opacity:1;stroke:none" /><text
       sodipodi:linespacing="125%"
       id="text10675"
       y="704.25787"
       x="529.70905"
       style="font-size:14.23006725px;font-style:normal;font-variant:normal;font-weight:bold;font-stretch:normal;text-align:center;line-height:125%;letter-spacing:0px;word-spacing:0px;writing-mode:lr-tb;text-anchor:middle;fill:#ffffff;fill-opacity:1;stroke:none;font-family:PT Sans;-inkscape-font-specification:PT Sans Bold"
       xml:space="preserve"
       inkscape:export-filename="/Users/massimomenichinelli/Documents/Github/Design-with-the-user_Slides/images/distributed_vcs.png"
       inkscape:export-xdpi="90"
       inkscape:export-ydpi="90"><tspan
         y="704.25787"
         x="529.70905"
         id="tspan10677"
         sodipodi:role="line">+ Flour</tspan></text>
</g></g><g
   inkscape:label="blue flows"
   id="layer5"
   inkscape:groupmode="layer"
   style="display:inline"><path
     inkscape:connector-curvature="0"
     id="path4472"
     d="m 208.49065,543.96615 c 152.40575,0 156.31359,-199.29984 156.31359,-179.76064"
     style="fill:none;stroke:#4a80da;stroke-width:4;stroke-linecap:butt;stroke-linejoin:miter;stroke-miterlimit:4;stroke-opacity:0.18823529;stroke-dasharray:4.00000014, 4.00000014;stroke-dashoffset:0;marker-end:url(#Arrow1SstartI)" /><path
     sodipodi:nodetypes="cc"
     style="fill:none;stroke:#4a80da;stroke-width:4;stroke-linecap:butt;stroke-linejoin:miter;stroke-miterlimit:4;stroke-opacity:0.18823529;stroke-dasharray:4.00000014, 4.00000014;stroke-dashoffset:0;marker-start:none;marker-end:url(#Arrow1Sendo)"
     d="M 212.22123,552.23557 C 448.51128,548.65018 735.17628,-9.906383 613.2004,-18.869851"
     id="path6184"
     inkscape:connector-curvature="0" /><path
     sodipodi:nodetypes="cc"
     inkscape:connector-curvature="0"
     id="path9336"
     d="M 629.58553,-20.544088 C 844.08155,-24.516236 889.76126,740.12235 560.07294,742.10842"
     style="fill:none;stroke:#4a80da;stroke-width:4;stroke-linecap:butt;stroke-linejoin:miter;stroke-miterlimit:4;stroke-opacity:0.18823529;stroke-dasharray:4.00000014, 4.00000014;stroke-dashoffset:0;marker-end:url(#Arrow1Sendo)" /><g
     transform="matrix(0.71150337,0,0,0.71150337,16.446189,201.98562)"
     id="g4293"><rect
       style="fill:#4b82da;fill-opacity:1;stroke:none"
       id="rect3448"
       width="131.05981"
       height="34.097519"
       x="115.39258"
       y="459.18393" /><text
       inkscape:export-ydpi="90"
       inkscape:export-xdpi="90"
       inkscape:export-filename="/Users/massimomenichinelli/Documents/Github/Design-with-the-user_Slides/images/distributed_vcs.png"
       xml:space="preserve"
       style="font-size:20px;font-style:normal;font-variant:normal;font-weight:bold;font-stretch:normal;text-align:center;line-height:125%;letter-spacing:0px;word-spacing:0px;writing-mode:lr-tb;text-anchor:middle;fill:#ffffff;fill-opacity:1;stroke:none;font-family:PT Sans;-inkscape-font-specification:PT Sans Bold"
       x="180.84061"
       y="481.28268"
       id="text4260"
       sodipodi:linespacing="125%"><tspan
         sodipodi:role="line"
         id="tspan4285"
         x="180.84061"
         y="481.28268">+ Apple</tspan></text>
</g><g
     id="g4306"
     transform="matrix(0.71150337,0,0,0.71150337,240.27025,5.7941534)"><rect
       y="459.18393"
       x="115.39258"
       height="34.097519"
       width="131.05981"
       id="rect4308"
       style="fill:#4b82da;fill-opacity:1;stroke:none" /><text
       sodipodi:linespacing="125%"
       id="text4310"
       y="481.28268"
       x="180.84061"
       style="font-size:20px;font-style:normal;font-variant:normal;font-weight:bold;font-stretch:normal;text-align:center;line-height:125%;letter-spacing:0px;word-spacing:0px;writing-mode:lr-tb;text-anchor:middle;fill:#ffffff;fill-opacity:1;stroke:none;font-family:PT Sans;-inkscape-font-specification:PT Sans Bold"
       xml:space="preserve"
       inkscape:export-filename="/Users/massimomenichinelli/Documents/Github/Design-with-the-user_Slides/images/distributed_vcs.png"
       inkscape:export-xdpi="90"
       inkscape:export-ydpi="90"><tspan
         y="481.28268"
         x="180.84061"
         id="tspan4312"
         sodipodi:role="line">+ Apple</tspan></text>
</g><g
     transform="matrix(0.71150337,0,0,0.71150337,422.64541,-354.81128)"
     id="g4314"><rect
       style="fill:#4b82da;fill-opacity:1;stroke:none"
       id="rect4316"
       width="131.05981"
       height="34.097519"
       x="115.39258"
       y="459.18393" /><text
       inkscape:export-ydpi="90"
       inkscape:export-xdpi="90"
       inkscape:export-filename="/Users/massimomenichinelli/Documents/Github/Design-with-the-user_Slides/images/distributed_vcs.png"
       xml:space="preserve"
       style="font-size:20px;font-style:normal;font-variant:normal;font-weight:bold;font-stretch:normal;text-align:center;line-height:125%;letter-spacing:0px;word-spacing:0px;writing-mode:lr-tb;text-anchor:middle;fill:#ffffff;fill-opacity:1;stroke:none;font-family:PT Sans;-inkscape-font-specification:PT Sans Bold"
       x="180.84061"
       y="481.28268"
       id="text4318"
       sodipodi:linespacing="125%"><tspan
         sodipodi:role="line"
         id="tspan4320"
         x="180.84061"
         y="481.28268">+ Apple</tspan></text>
</g><g
     id="g4330"
     transform="matrix(0.71150337,0,0,0.71150337,365.291,403.7036)"><rect
       y="459.18393"
       x="115.39258"
       height="34.097519"
       width="131.05981"
       id="rect4332"
       style="fill:#4b82da;fill-opacity:1;stroke:none" /><text
       sodipodi:linespacing="125%"
       id="text4334"
       y="481.28268"
       x="180.84061"
       style="font-size:20px;font-style:normal;font-variant:normal;font-weight:bold;font-stretch:normal;text-align:center;line-height:125%;letter-spacing:0px;word-spacing:0px;writing-mode:lr-tb;text-anchor:middle;fill:#ffffff;fill-opacity:1;stroke:none;font-family:PT Sans;-inkscape-font-specification:PT Sans Bold"
       xml:space="preserve"
       inkscape:export-filename="/Users/massimomenichinelli/Documents/Github/Design-with-the-user_Slides/images/distributed_vcs.png"
       inkscape:export-xdpi="90"
       inkscape:export-ydpi="90"><tspan
         y="481.28268"
         x="180.84061"
         id="tspan4336"
         sodipodi:role="line">+ Apple</tspan></text>
</g></g><g
   inkscape:label="green flows"
   id="layer6"
   inkscape:groupmode="layer"
   style="display:inline"><path
     style="fill:none;stroke:#57da4b;stroke-width:4;stroke-linecap:butt;stroke-linejoin:miter;stroke-miterlimit:4;stroke-opacity:1;stroke-dasharray:4.00000007, 4.00000007;stroke-dashoffset:0;marker-end:url(#Arrow1Sends)"
     d="m 877.8448,622.94396 c -172.78846,0 -117.17838,-184.7049 -204.56564,-184.7049"
     id="path13063"
     inkscape:connector-curvature="0"
     transform="translate(0,-2.3563764e-6)"
     sodipodi:nodetypes="cc" /><path
     transform="translate(0,-2.3563764e-6)"
     inkscape:connector-curvature="0"
     id="path13707"
     d="m 991.05103,620.95788 c 291.95287,0 236.34287,-488.57425 -87.38727,-488.57425"
     style="fill:none;stroke:#57da4b;stroke-width:4;stroke-linecap:butt;stroke-linejoin:miter;stroke-miterlimit:4;stroke-opacity:1;stroke-dasharray:4.00000007, 4.00000007;stroke-dashoffset:0;marker-end:url(#Arrow1SendQ)" /><path
     sodipodi:nodetypes="cc"
     inkscape:connector-curvature="0"
     id="path14356"
     d="m 877.8448,622.94396 c -224.13937,0 -152.00256,-612.291184 -265.36039,-612.291184"
     style="fill:none;stroke:#57da4b;stroke-width:4;stroke-linecap:butt;stroke-linejoin:miter;stroke-miterlimit:4;stroke-opacity:1;stroke-dasharray:4.00000007, 4.00000007;stroke-dashoffset:0;marker-end:url(#Arrow1Sends)" /><g
     transform="translate(-35.749344,69.512596)"
     id="g4393"><rect
       style="fill:#57da4b;fill-opacity:1;stroke:none"
       id="rect4365"
       width="93.249496"
       height="24.2605"
       x="920.88458"
       y="539.31848" /><text
       inkscape:export-ydpi="90"
       inkscape:export-xdpi="90"
       inkscape:export-filename="/Users/massimomenichinelli/Documents/Github/Design-with-the-user_Slides/images/distributed_vcs.png"
       xml:space="preserve"
       style="font-size:14.23006725px;font-style:normal;font-variant:normal;font-weight:bold;font-stretch:normal;text-align:center;line-height:125%;letter-spacing:0px;word-spacing:0px;writing-mode:lr-tb;text-anchor:middle;fill:#ffffff;fill-opacity:1;stroke:none;font-family:PT Sans;-inkscape-font-specification:PT Sans Bold"
       x="967.21448"
       y="555.02051"
       id="text4367"
       sodipodi:linespacing="125%"><tspan
         sodipodi:role="line"
         id="tspan4369"
         x="967.21448"
         y="555.02051">+ Sugar</tspan></text>
</g><g
     transform="translate(-347.05545,-108.03203)"
     id="g4398"><rect
       y="539.31848"
       x="920.88458"
       height="24.2605"
       width="93.249496"
       id="rect4400"
       style="fill:#57da4b;fill-opacity:1;stroke:none" /><text
       sodipodi:linespacing="125%"
       id="text4402"
       y="555.02051"
       x="967.21448"
       style="font-size:14.23006725px;font-style:normal;font-variant:normal;font-weight:bold;font-stretch:normal;text-align:center;line-height:125%;letter-spacing:0px;word-spacing:0px;writing-mode:lr-tb;text-anchor:middle;fill:#ffffff;fill-opacity:1;stroke:none;font-family:PT Sans;-inkscape-font-specification:PT Sans Bold"
       xml:space="preserve"
       inkscape:export-filename="/Users/massimomenichinelli/Documents/Github/Design-with-the-user_Slides/images/distributed_vcs.png"
       inkscape:export-xdpi="90"
       inkscape:export-ydpi="90"><tspan
         y="555.02051"
         x="967.21448"
         id="tspan4404"
         sodipodi:role="line">+ Sugar</tspan></text>
</g><g
     id="g4406"
     transform="translate(-416.13696,-539.20668)"><rect
       style="fill:#57da4b;fill-opacity:1;stroke:none"
       id="rect4408"
       width="93.249496"
       height="24.2605"
       x="920.88458"
       y="539.31848" /><text
       inkscape:export-ydpi="90"
       inkscape:export-xdpi="90"
       inkscape:export-filename="/Users/massimomenichinelli/Documents/Github/Design-with-the-user_Slides/images/distributed_vcs.png"
       xml:space="preserve"
       style="font-size:14.23006725px;font-style:normal;font-variant:normal;font-weight:bold;font-stretch:normal;text-align:center;line-height:125%;letter-spacing:0px;word-spacing:0px;writing-mode:lr-tb;text-anchor:middle;fill:#ffffff;fill-opacity:1;stroke:none;font-family:PT Sans;-inkscape-font-specification:PT Sans Bold"
       x="967.21448"
       y="555.02051"
       id="text4410"
       sodipodi:linespacing="125%"><tspan
         sodipodi:role="line"
         id="tspan4412"
         x="967.21448"
         y="555.02051">+ Sugar</tspan></text>
</g><g
     transform="translate(-4.1821612e-6,-2.8279674e-6)"
     id="g14430"><rect
       y="122.49731"
       x="806.38232"
       height="24.2605"
       width="93.249496"
       id="rect4416"
       style="fill:#57da4b;fill-opacity:1;stroke:none" /><text
       sodipodi:linespacing="125%"
       id="text4418"
       y="138.19934"
       x="852.71222"
       style="font-size:14.23006725px;font-style:normal;font-variant:normal;font-weight:bold;font-stretch:normal;text-align:center;line-height:125%;letter-spacing:0px;word-spacing:0px;writing-mode:lr-tb;text-anchor:middle;fill:#ffffff;fill-opacity:1;stroke:none;font-family:PT Sans;-inkscape-font-specification:PT Sans Bold"
       xml:space="preserve"
       inkscape:export-filename="/Users/massimomenichinelli/Documents/Github/Design-with-the-user_Slides/images/distributed_vcs.png"
       inkscape:export-xdpi="90"
       inkscape:export-ydpi="90"><tspan
         y="138.19934"
         x="852.71222"
         id="tspan4420"
         sodipodi:role="line">+ Sugar</tspan></text>
</g></g></svg>